<svg width="852" height="772" viewBox="0 0 852 772" fill="none" xmlns="http://www.w3.org/2000/svg">
<path d="M425.898 771.142C661.115 771.142 851.796 664.718 851.796 533.438C851.796 402.159 661.115 295.735 425.898 295.735C190.681 295.735 0 402.159 0 533.438C0 664.718 190.681 771.142 425.898 771.142Z" fill="#ACABAB" fill-opacity="0.7"/>
<path d="M111.529 646.156L65.9004 620.519C61.916 618.213 61.916 614.473 65.9004 612.149L294.831 479.509C297.076 478.371 299.558 477.778 302.074 477.778C304.591 477.778 307.073 478.371 309.318 479.509L354.947 505.093C358.949 507.4 358.949 511.14 354.947 513.464L126.017 646.104C123.776 647.252 121.297 647.856 118.779 647.865C116.262 647.874 113.778 647.288 111.529 646.156V646.156Z" fill="#E0E0E0"/>
<path d="M397.43 717.282C458.949 717.282 508.82 686.478 508.82 648.48C508.82 610.482 458.949 579.679 397.43 579.679C335.911 579.679 286.041 610.482 286.041 648.48C286.041 686.478 335.911 717.282 397.43 717.282Z" fill="#E0E0E0"/>
<path d="M827.12 496.006L640.621 388.339C638.623 387.331 636.418 386.806 634.181 386.806C631.944 386.806 629.738 387.331 627.741 388.339L501.689 461.124C500.912 461.389 500.237 461.89 499.759 462.558C499.281 463.225 499.024 464.026 499.024 464.847C499.024 465.668 499.281 466.468 499.759 467.136C500.237 467.803 500.912 468.304 501.689 468.569L688.172 576.219C690.166 577.236 692.373 577.766 694.611 577.766C696.85 577.766 699.057 577.236 701.051 576.219L827.12 503.433C827.851 503.106 828.482 502.59 828.949 501.939C829.415 501.288 829.701 500.525 829.776 499.728C829.776 497.963 827.837 496.355 827.12 496.006Z" fill="#E0E0E0"/>
<path d="M100.275 509.707C89.3877 464.532 55.6248 414.08 22.0892 431.835C-11.4465 449.59 46.3802 489.243 63.1393 526.536C77.8014 559.232 94.2284 603.586 98.0905 614.053L110.638 608.199C110.568 597.05 109.589 548.555 100.275 509.707Z" fill="#0D76E3"/>
<path opacity="0.15" d="M100.275 509.707C89.3877 464.532 55.6248 414.08 22.0892 431.835C-11.4465 449.59 46.3802 489.243 63.1393 526.536C77.8014 559.232 94.2284 603.586 98.0905 614.053L110.638 608.199C110.568 597.05 109.589 548.555 100.275 509.707Z" fill="black"/>
<path d="M100.852 602.956C101.162 602.956 101.46 602.833 101.68 602.613C101.899 602.394 102.023 602.096 102.023 601.786C101.725 513.901 64.6597 459.307 33.0289 439.262C32.7639 439.098 32.4451 439.045 32.1411 439.113C31.8371 439.182 31.5723 439.367 31.4036 439.629C31.2404 439.892 31.1873 440.208 31.256 440.509C31.3248 440.81 31.5097 441.072 31.7706 441.237C62.9121 460.95 99.3837 514.827 99.6808 601.768C99.6785 601.923 99.7071 602.077 99.7649 602.222C99.8227 602.366 99.9085 602.497 100.017 602.607C100.126 602.718 100.256 602.806 100.4 602.866C100.543 602.926 100.696 602.956 100.852 602.956Z" fill="white"/>
<path d="M93.2848 563.724C67.3685 511.297 31.1765 505.74 17.7902 517.64C7.09514 527.13 15.1339 541.582 25.095 547.751C38.0619 555.772 82.1354 576.743 96.9896 614.56L106.776 609.964C106.426 603.201 104.347 586.127 93.2848 563.724Z" fill="#0D76E3"/>
<path d="M101.323 608.094H101.586C101.908 608.027 102.19 607.835 102.37 607.559C102.55 607.284 102.614 606.948 102.547 606.626C93.9837 564.108 53.4753 534.592 33.1861 530.013C32.8788 529.972 32.5674 530.048 32.3131 530.225C32.0588 530.403 31.8801 530.669 31.8122 530.971C31.7442 531.274 31.7919 531.591 31.946 531.86C32.1 532.129 32.3491 532.33 32.6444 532.425C52.3569 536.881 91.7643 565.628 100.118 607.116C100.174 607.393 100.325 607.642 100.545 607.821C100.765 607.999 101.04 608.096 101.323 608.094V608.094Z" fill="white"/>
<path d="M306.05 3.54326L101.743 121.451C98.4742 123.339 95.7381 126.026 93.7911 129.259C91.8441 132.493 90.7499 136.168 90.611 139.94V606.749C90.611 614.333 95.2769 623.158 101.096 626.496C106.916 629.834 116.824 629.467 123.413 625.675L326.968 508.169C330.422 505.911 333.297 502.873 335.361 499.3C337.425 495.728 338.621 491.72 338.852 487.6V22.4169C338.852 14.85 334.168 6.00732 328.367 2.66948C322.565 -0.668361 312.604 -0.283898 306.05 3.54326Z" fill="#37474F"/>
<path d="M120.529 627.02C114.186 629.502 106.042 629.379 101.061 626.496C95.2945 623.176 90.576 614.263 90.576 606.749V139.94C90.6992 136.35 91.7336 132.85 93.5819 129.77L112.805 140.639C109.485 144.516 107.543 149.383 107.283 154.48V616.378C107.248 625.5 113.085 629.816 120.529 627.02Z" fill="#263238"/>
<path d="M117.716 136.358C114.67 138.349 112.134 141.028 110.313 144.179C108.492 147.33 107.436 150.864 107.23 154.498V616.395C107.23 626.618 114.483 630.813 123.343 625.692L326.916 508.169C330.37 505.911 333.245 502.873 335.309 499.3C337.373 495.728 338.569 491.72 338.8 487.6V22.4169C338.8 14.8675 333.452 11.7918 326.916 15.5665L117.716 136.358Z" fill="#455A64"/>
<path d="M128.463 165.647L117.174 172.165V593.747L128.463 587.228L319.821 476.765L331.11 470.247V48.6653L319.839 55.1662L128.463 165.647Z" fill="#37474F"/>
<path d="M316.815 460.792V56.8962L128.463 165.647L117.174 172.165V576.096L305.526 467.346C311.747 463.763 316.815 460.792 316.815 460.792Z" fill="#0D76E3"/>
<path opacity="0.6" d="M316.815 460.792V56.8962L128.463 165.647L117.174 172.165V576.096L305.526 467.346C311.747 463.763 316.815 460.792 316.815 460.792Z" fill="white"/>
<path d="M209.2 96.5659L243.557 76.731C245.602 75.5427 247.262 76.3815 247.262 78.6009C247.171 79.8474 246.788 81.0549 246.144 82.1263C245.501 83.1977 244.615 84.1032 243.557 84.7698L209.2 104.605C207.156 105.776 205.478 104.937 205.478 102.717C205.572 101.472 205.958 100.266 206.604 99.1968C207.251 98.1281 208.14 97.2267 209.2 96.5659Z" fill="black"/>
<path d="M268.163 62.471C270.085 61.3701 271.658 62.2613 271.658 64.4807C271.593 65.6902 271.242 66.8671 270.635 67.915C270.027 68.9629 269.18 69.8521 268.163 70.5098C266.241 71.6282 264.668 70.7195 264.668 68.5001C264.736 67.2913 265.088 66.1154 265.695 65.0679C266.302 64.0205 267.148 63.1308 268.163 62.471V62.471Z" fill="black"/>
<path d="M282.091 54.4496C284.014 53.3312 285.586 54.2399 285.586 56.4593C285.518 57.6682 285.166 58.844 284.559 59.8915C283.952 60.939 283.106 61.8287 282.091 62.4884C280.169 63.5894 278.596 62.6981 278.596 60.4787C278.661 59.2692 279.012 58.0923 279.62 57.0444C280.227 55.9965 281.074 55.1073 282.091 54.4496V54.4496Z" fill="black"/>
<path d="M170.754 118.76C172.676 117.642 174.249 118.55 174.249 120.77C174.181 121.979 173.829 123.154 173.222 124.202C172.615 125.249 171.769 126.139 170.754 126.799C168.832 127.917 167.259 127.008 167.259 124.789C167.324 123.58 167.675 122.403 168.283 121.355C168.89 120.307 169.737 119.418 170.754 118.76V118.76Z" fill="black"/>
<path d="M184.63 110.721C186.552 109.62 188.125 110.511 188.125 112.731C188.06 113.94 187.709 115.117 187.101 116.165C186.494 117.213 185.647 118.102 184.63 118.76C182.707 119.878 181.135 118.97 181.135 116.75C181.204 115.542 181.557 114.366 182.164 113.319C182.771 112.272 183.616 111.382 184.63 110.721V110.721Z" fill="black"/>
<path opacity="0.1" d="M129.11 313.999C128.199 313.984 127.301 313.785 126.47 313.414C125.639 313.043 124.891 312.507 124.272 311.839C123.653 311.171 123.176 310.385 122.869 309.528C122.562 308.671 122.432 307.76 122.487 306.851V212.938C122.525 210.935 123.085 208.978 124.112 207.258C125.078 205.527 126.482 204.081 128.184 203.064L196.234 163.831C197.411 163.139 198.748 162.766 200.113 162.748C201.419 162.735 202.698 163.121 203.779 163.855C204.859 164.589 205.69 165.636 206.16 166.854C206.48 167.848 206.645 168.886 206.649 169.93V263.861C206.573 265.84 206.019 267.77 205.032 269.487C204.046 271.204 202.658 272.656 200.987 273.718L132.989 312.915C132.594 313.133 132.186 313.326 131.766 313.492C130.92 313.825 130.019 313.997 129.11 313.999Z" fill="black"/>
<path d="M210.791 174.998C210.729 173.85 210.397 172.733 209.824 171.738C209.25 170.742 208.45 169.895 207.488 169.266L204.779 167.711C203.758 167.185 202.625 166.911 201.476 166.911C200.327 166.911 199.195 167.185 198.173 167.711L130.141 206.978C129.178 207.606 128.377 208.453 127.803 209.449C127.229 210.445 126.899 211.562 126.838 212.71V306.624C126.899 307.772 127.229 308.889 127.803 309.885C128.377 310.882 129.178 311.728 130.141 312.356L132.832 313.912C133.856 314.429 134.988 314.699 136.135 314.699C137.282 314.699 138.414 314.429 139.438 313.912L207.453 274.609C208.412 273.981 209.211 273.137 209.785 272.145C210.358 271.152 210.691 270.039 210.756 268.894L210.791 174.998Z" fill="#FAFAFA"/>
<path d="M126.838 306.624C126.899 307.772 127.229 308.89 127.803 309.886C128.377 310.882 129.178 311.728 130.141 312.356L132.832 313.912C133.765 314.377 134.786 314.641 135.828 314.686C136.869 314.732 137.909 314.557 138.879 314.174C137.323 314.768 136.135 313.877 136.135 311.989V218.075C136.173 216.925 136.51 215.805 137.114 214.825L127.799 209.442C127.21 210.434 126.88 211.558 126.838 212.71V306.624Z" fill="#E0E0E0"/>
<path d="M210.686 174.107C210.301 172.691 208.938 172.254 207.488 173.128L139.438 212.361C138.462 212.966 137.661 213.815 137.114 214.825L127.817 209.46C128.364 208.45 129.165 207.601 130.141 206.996L198.173 167.763C199.197 167.246 200.329 166.976 201.476 166.976C202.624 166.976 203.755 167.246 204.779 167.763L207.488 169.318C208.317 169.859 209.028 170.562 209.577 171.385C210.127 172.208 210.504 173.134 210.686 174.107V174.107Z" fill="#F0F0F0"/>
<path d="M154.257 292.085C154.115 292.079 153.977 292.036 153.855 291.962C153.734 291.894 153.633 291.795 153.562 291.676C153.492 291.556 153.454 291.42 153.453 291.281V242.174C153.454 242.035 153.492 241.899 153.562 241.779C153.633 241.66 153.734 241.561 153.855 241.493L192.669 219.071C192.791 219.003 192.93 218.966 193.07 218.966C193.211 218.966 193.35 219.003 193.472 219.071C193.595 219.142 193.697 219.244 193.767 219.367C193.838 219.49 193.875 219.629 193.874 219.771V268.842C193.873 268.983 193.835 269.122 193.765 269.244C193.695 269.367 193.594 269.469 193.472 269.541L154.642 291.945C154.527 292.023 154.395 292.071 154.257 292.085V292.085ZM155.026 242.646V289.83L192.249 268.335V221.151L155.026 242.646Z" fill="#0D76E3"/>
<path d="M170.265 282.805C170.055 282.805 169.853 282.723 169.702 282.576C169.552 282.429 169.466 282.229 169.461 282.019V233.087L162.471 223.021L155.026 242.471C154.948 242.667 154.796 242.824 154.603 242.909C154.411 242.994 154.192 243 153.995 242.926C153.897 242.889 153.807 242.833 153.73 242.761C153.654 242.689 153.593 242.602 153.55 242.506C153.508 242.41 153.485 242.306 153.484 242.201C153.482 242.096 153.501 241.992 153.541 241.895L161.579 221.134C161.63 220.998 161.717 220.878 161.831 220.789C161.945 220.7 162.082 220.643 162.226 220.627C162.37 220.609 162.515 220.631 162.647 220.69C162.78 220.748 162.894 220.841 162.977 220.959L170.964 232.475C171.052 232.611 171.1 232.768 171.104 232.93V282.019C171.101 282.126 171.078 282.231 171.034 282.329C170.991 282.427 170.928 282.515 170.85 282.588C170.772 282.662 170.68 282.718 170.579 282.756C170.479 282.793 170.372 282.81 170.265 282.805Z" fill="#0D76E3"/>
<path d="M170.265 233.734C170.136 233.734 170.01 233.702 169.897 233.641C169.784 233.58 169.688 233.492 169.618 233.384L161.632 221.868C161.568 221.777 161.525 221.674 161.504 221.566C161.483 221.458 161.485 221.346 161.51 221.238C161.536 221.132 161.583 221.033 161.65 220.945C161.716 220.858 161.799 220.786 161.894 220.732L184.735 207.538C184.906 207.436 185.109 207.402 185.304 207.445C185.498 207.487 185.67 207.601 185.783 207.765L193.77 219.281C193.831 219.372 193.874 219.475 193.895 219.583C193.916 219.691 193.915 219.803 193.892 219.91C193.869 220.02 193.823 220.124 193.756 220.214C193.69 220.304 193.605 220.38 193.507 220.435L170.754 233.629C170.606 233.715 170.435 233.752 170.265 233.734V233.734ZM163.432 221.675L170.422 231.881L191.882 219.473L184.892 209.285L163.432 221.675Z" fill="#0D76E3"/>
<path d="M162.278 222.182C162.174 222.182 162.07 222.161 161.973 222.121C161.877 222.08 161.789 222.021 161.716 221.946C161.643 221.871 161.585 221.782 161.547 221.685C161.508 221.587 161.49 221.483 161.492 221.378V216.013C161.492 215.872 161.528 215.732 161.599 215.61C161.67 215.487 161.771 215.385 161.894 215.314L184.735 202.155C184.857 202.086 184.996 202.05 185.137 202.05C185.277 202.05 185.416 202.086 185.538 202.155C185.659 202.228 185.759 202.331 185.829 202.453C185.899 202.575 185.938 202.713 185.94 202.854V208.202C185.94 208.415 185.856 208.619 185.705 208.77C185.554 208.921 185.35 209.006 185.137 209.006C184.923 209.006 184.719 208.921 184.568 208.77C184.417 208.619 184.333 208.415 184.333 208.202V204.217L163.082 216.45V221.361C163.087 221.468 163.07 221.576 163.031 221.677C162.993 221.777 162.934 221.869 162.859 221.946C162.783 222.023 162.693 222.084 162.593 222.124C162.493 222.165 162.386 222.185 162.278 222.182V222.182Z" fill="#0D76E3"/>
<path d="M175.507 270.659L177.063 266.186L177.168 265.959C177.188 265.901 177.221 265.847 177.263 265.802C177.305 265.757 177.356 265.721 177.412 265.696L177.954 265.382C177.978 265.37 178.005 265.363 178.033 265.363C178.06 265.363 178.087 265.37 178.111 265.382C178.125 265.409 178.132 265.439 178.132 265.469C178.132 265.5 178.125 265.53 178.111 265.557V272.547C178.133 272.627 178.133 272.711 178.111 272.792C178.083 272.868 178.027 272.931 177.954 272.966L177.307 273.351C177.307 273.351 177.185 273.351 177.15 273.351C177.136 273.324 177.129 273.294 177.129 273.263C177.129 273.233 177.136 273.203 177.15 273.176V268.947L176.102 271.988C176.102 271.988 176.102 272.145 175.979 272.232C175.939 272.317 175.871 272.385 175.787 272.425L175.368 272.669C175.34 272.69 175.306 272.702 175.272 272.702C175.237 272.702 175.203 272.69 175.175 272.669C175.175 272.669 175.175 272.669 175.071 272.564L174.005 270.729V274.976C174.019 275.057 174.019 275.14 174.005 275.221C173.961 275.286 173.908 275.345 173.847 275.395L173.183 275.78C173.16 275.796 173.133 275.804 173.105 275.804C173.076 275.804 173.049 275.796 173.026 275.78C173.014 275.752 173.008 275.722 173.008 275.692C173.008 275.662 173.014 275.633 173.026 275.605V268.615C173.011 268.534 173.011 268.451 173.026 268.37C173.069 268.304 173.122 268.245 173.183 268.195L173.742 267.881C173.847 267.881 173.935 267.881 173.97 267.881L174.092 267.986L175.507 270.659Z" fill="#0D76E3"/>
<path d="M179.667 271.97C179.642 271.982 179.615 271.989 179.588 271.989C179.561 271.989 179.534 271.982 179.509 271.97C179.489 271.914 179.489 271.852 179.509 271.795V264.805C179.496 264.724 179.496 264.642 179.509 264.561C179.548 264.491 179.602 264.431 179.667 264.386L180.331 264.001C180.35 263.984 180.375 263.975 180.401 263.975C180.426 263.975 180.451 263.984 180.471 264.001C180.484 264.028 180.492 264.058 180.492 264.089C180.492 264.119 180.484 264.149 180.471 264.176V271.166C180.465 271.247 180.443 271.325 180.407 271.397C180.371 271.469 180.322 271.533 180.261 271.586L179.667 271.97Z" fill="#0D76E3"/>
<path d="M185.591 267.199C185.591 267.199 185.713 267.199 185.748 267.199C185.762 267.226 185.769 267.256 185.769 267.287C185.769 267.317 185.762 267.347 185.748 267.374V268.143C185.77 268.223 185.77 268.308 185.748 268.388C185.715 268.461 185.66 268.522 185.591 268.562L182.096 270.607C182.077 270.624 182.052 270.634 182.026 270.634C182 270.634 181.975 270.624 181.956 270.607C181.956 270.607 181.956 270.52 181.956 270.45V263.46C181.933 263.38 181.933 263.295 181.956 263.215C181.983 263.144 182.032 263.082 182.096 263.04L182.76 262.656C182.783 262.64 182.81 262.631 182.838 262.631C182.867 262.631 182.894 262.64 182.917 262.656C182.929 262.683 182.935 262.713 182.935 262.743C182.935 262.773 182.929 262.803 182.917 262.83V268.772L185.591 267.199Z" fill="#0D76E3"/>
<path opacity="0.1" d="M223.356 269.58C222.445 269.565 221.547 269.366 220.716 268.995C219.885 268.624 219.137 268.088 218.518 267.42C217.899 266.752 217.422 265.966 217.115 265.109C216.808 264.252 216.678 263.341 216.732 262.432V168.519C216.771 166.516 217.331 164.559 218.358 162.839C219.319 161.105 220.724 159.657 222.429 158.645L290.479 119.412C291.646 118.707 292.979 118.327 294.342 118.311C295.648 118.296 296.928 118.681 298.009 119.416C299.09 120.15 299.92 121.198 300.388 122.418V122.418C300.703 123.413 300.868 124.45 300.877 125.494V219.407C300.802 221.386 300.247 223.316 299.261 225.033C298.274 226.75 296.886 228.202 295.215 229.264L227.06 268.496C226.669 268.71 226.267 268.903 225.855 269.073C225.058 269.387 224.212 269.558 223.356 269.58V269.58Z" fill="black"/>
<path d="M305.316 130.562C305.255 129.412 304.922 128.293 304.345 127.296C303.768 126.3 302.963 125.455 301.996 124.83L299.305 123.274C298.283 122.748 297.151 122.474 296.002 122.474C294.853 122.474 293.72 122.748 292.699 123.274L224.666 162.489C223.699 163.115 222.894 163.96 222.317 164.956C221.74 165.953 221.407 167.072 221.346 168.221V262.135C221.41 263.284 221.744 264.402 222.321 265.398C222.898 266.394 223.701 267.24 224.666 267.867L227.358 269.423C228.382 269.94 229.513 270.21 230.66 270.21C231.808 270.21 232.939 269.94 233.963 269.423L301.996 230.19C302.963 229.565 303.768 228.719 304.345 227.723C304.922 226.727 305.255 225.608 305.316 224.458V130.562Z" fill="#FAFAFA"/>
<path d="M221.276 262.135C221.34 263.284 221.674 264.402 222.251 265.398C222.828 266.394 223.631 267.24 224.596 267.867L227.288 269.423C228.221 269.888 229.241 270.152 230.283 270.198C231.325 270.243 232.364 270.068 233.334 269.685C231.779 270.279 230.59 269.388 230.59 267.5V173.586C230.63 172.439 230.961 171.32 231.552 170.336L222.255 164.953C221.664 165.945 221.327 167.068 221.276 168.221V262.135Z" fill="#E0E0E0"/>
<path d="M305.124 129.618C304.739 128.202 303.464 127.765 301.943 128.639L233.893 167.872C232.913 168.472 232.111 169.323 231.569 170.336L222.255 164.971C222.813 163.964 223.619 163.116 224.596 162.507L292.611 123.274C293.639 122.758 294.773 122.489 295.923 122.489C297.073 122.489 298.207 122.758 299.235 123.274L301.943 124.83C302.772 125.369 303.481 126.072 304.028 126.895C304.575 127.719 304.948 128.645 305.124 129.618V129.618Z" fill="#F0F0F0"/>
<path d="M256.909 241.794C253.082 241.794 249.499 239.697 246.284 235.572C237.057 223.724 242.037 197.947 252.383 189.419C259.373 183.687 263.025 184.491 265.559 186.186C267.806 184.931 269.732 183.173 271.186 181.049C274.312 176.662 278.657 173.29 283.681 171.35C284.958 170.826 286.365 170.713 287.709 171.026C289.053 171.339 290.265 172.063 291.178 173.097C296.281 178.445 297.487 193.911 290.672 210.547C280.99 234.139 271.151 235.205 268.775 235.118C267.604 236.569 263.025 241.724 257.031 241.794H256.909ZM261.627 186.553C259.687 186.553 257.119 187.567 253.396 190.643C243.767 198.594 238.944 223.549 247.542 234.594C250.478 238.351 253.728 240.221 257.014 240.203C263.043 240.116 267.726 233.877 267.779 233.807C267.873 233.688 267.997 233.597 268.138 233.541C268.279 233.486 268.433 233.469 268.583 233.493C268.67 233.493 278.893 235.013 289.186 209.936C295.775 193.911 294.778 179.179 290.025 174.198C289.322 173.392 288.383 172.829 287.342 172.587C286.3 172.346 285.209 172.438 284.223 172.853C279.463 174.689 275.352 177.894 272.41 182.062C270.955 184.139 269.116 185.919 266.992 187.305L267.289 187.567C268.548 188.616 269.386 189.315 270.417 189.105C271.85 188.895 274.192 187.095 275.992 183.67C276.092 183.485 276.261 183.346 276.463 183.286C276.664 183.225 276.882 183.247 277.067 183.347C277.252 183.446 277.391 183.615 277.451 183.817C277.512 184.019 277.49 184.236 277.39 184.421C275.643 187.916 272.951 190.328 270.662 190.678C269.834 190.713 269.008 190.561 268.246 190.235C267.483 189.908 266.804 189.414 266.258 188.79C265.055 187.483 263.399 186.683 261.627 186.553Z" fill="#0D76E3"/>
<path d="M270.854 190.45C270.649 190.455 270.449 190.379 270.299 190.239C270.149 190.098 270.06 189.904 270.051 189.699C269.614 178.986 276.115 162.594 282.458 158.348C282.634 158.232 282.849 158.191 283.056 158.233C283.262 158.276 283.443 158.399 283.559 158.575C283.675 158.751 283.716 158.966 283.674 159.172C283.631 159.379 283.508 159.56 283.332 159.676C277.46 163.608 271.239 179.563 271.641 189.629C271.645 189.732 271.63 189.836 271.595 189.933C271.559 190.03 271.505 190.119 271.435 190.196C271.366 190.272 271.281 190.334 271.188 190.377C271.094 190.421 270.993 190.446 270.889 190.45H270.854Z" fill="#0D76E3"/>
<path d="M268.373 179.983H268.25C267.583 179.942 266.939 179.723 266.385 179.348C265.832 178.973 265.389 178.456 265.105 177.851C263.113 174.146 264.144 168.047 264.179 167.785C264.205 167.649 264.261 167.52 264.343 167.409C264.424 167.297 264.529 167.205 264.651 167.138C264.843 167.033 269.369 164.534 272.619 166.806C275.538 168.851 274.874 174.023 273.126 176.837C272.65 177.709 271.968 178.451 271.14 178.999C270.311 179.547 269.361 179.885 268.373 179.983V179.983ZM265.961 168.571C265.786 169.986 265.367 174.355 266.765 176.959C266.895 177.273 267.109 177.545 267.384 177.745C267.658 177.946 267.982 178.067 268.32 178.095C268.998 178.006 269.645 177.754 270.204 177.362C270.764 176.97 271.221 176.448 271.536 175.841V175.841C273.004 173.482 273.283 169.602 271.536 168.344C269.788 167.086 266.992 168.099 265.961 168.571V168.571Z" fill="#0D76E3"/>
<path opacity="0.1" d="M129.11 482.375C128.201 482.36 127.305 482.161 126.474 481.791C125.644 481.421 124.897 480.887 124.279 480.221C123.66 479.555 123.183 478.771 122.875 477.916C122.567 477.061 122.435 476.152 122.486 475.245V381.296C122.527 379.294 123.087 377.337 124.112 375.616C125.078 373.885 126.482 372.439 128.184 371.422L196.234 332.189C197.411 331.498 198.748 331.124 200.113 331.106C201.419 331.093 202.698 331.48 203.779 332.214C204.859 332.948 205.69 333.994 206.16 335.213V335.213C206.48 336.207 206.645 337.244 206.649 338.288V432.22C206.573 434.198 206.018 436.129 205.032 437.845C204.046 439.562 202.658 441.014 200.987 442.076L132.989 481.274C132.594 481.491 132.186 481.684 131.766 481.85C130.921 482.19 130.02 482.367 129.11 482.375Z" fill="black"/>
<path d="M210.791 343.356C210.726 342.212 210.393 341.098 209.82 340.106C209.246 339.113 208.447 338.269 207.488 337.642L204.779 336.086C203.757 335.561 202.625 335.286 201.476 335.286C200.327 335.286 199.195 335.561 198.173 336.086L130.141 375.302C129.178 375.926 128.377 376.769 127.803 377.762C127.229 378.756 126.899 379.871 126.838 381.016V474.93C126.904 476.072 127.237 477.182 127.811 478.172C128.385 479.161 129.183 480.002 130.141 480.627L132.832 482.182C133.856 482.7 134.987 482.97 136.135 482.97C137.282 482.97 138.414 482.7 139.438 482.182L207.453 443.002C208.415 442.373 209.215 441.526 209.789 440.53C210.362 439.535 210.694 438.418 210.756 437.27L210.791 343.356Z" fill="#FAFAFA"/>
<path d="M126.838 474.947C126.907 476.086 127.241 477.193 127.815 478.18C128.388 479.166 129.185 480.004 130.141 480.627L132.832 482.182C133.765 482.648 134.786 482.912 135.827 482.957C136.869 483.002 137.909 482.828 138.879 482.444C137.323 483.039 136.135 482.147 136.135 480.26V386.399C136.172 385.248 136.51 384.128 137.114 383.148L127.799 377.766C127.21 378.757 126.88 379.881 126.838 381.034V474.947Z" fill="#E0E0E0"/>
<path d="M210.686 342.43C210.301 341.014 208.938 340.578 207.488 341.451L139.438 380.684C138.462 381.289 137.661 382.139 137.114 383.148L127.817 377.783C128.364 376.774 129.165 375.924 130.141 375.319L198.173 336.086C199.197 335.569 200.329 335.299 201.476 335.299C202.624 335.299 203.755 335.569 204.779 336.086L207.488 337.642C208.317 338.182 209.028 338.885 209.577 339.708C210.127 340.531 210.504 341.457 210.686 342.43V342.43Z" fill="#F0F0F0"/>
<path d="M160.531 435.068C160.382 435.073 160.235 435.03 160.111 434.946C159.991 434.874 159.892 434.772 159.824 434.649C159.756 434.526 159.723 434.387 159.727 434.247C160.321 399.4 184.525 367.21 204.15 363.803C204.259 363.781 204.371 363.783 204.479 363.807C204.587 363.831 204.69 363.877 204.779 363.942C204.952 364.089 205.064 364.294 205.094 364.519C205.094 365.288 206.387 383.585 187.146 409.659C173.288 428.427 161.405 434.719 160.933 434.981C160.807 435.039 160.67 435.069 160.531 435.068V435.068ZM203.521 365.55C184.909 369.622 162.541 399.837 161.37 432.849C164.743 430.752 174.756 423.761 185.836 408.715C202.35 386.364 203.503 369.535 203.521 365.55Z" fill="#0D76E3"/>
<path d="M195.08 396.587C186.901 396.08 182.585 389.002 183.232 377.137C183.236 377.032 183.261 376.929 183.306 376.834C183.351 376.739 183.414 376.654 183.493 376.584C183.571 376.514 183.662 376.46 183.761 376.426C183.861 376.392 183.966 376.378 184.07 376.385C184.281 376.399 184.477 376.494 184.618 376.651C184.758 376.808 184.831 377.014 184.822 377.224C184.228 388.076 188.02 394.56 195.185 394.979C195.395 394.997 195.59 395.097 195.727 395.257C195.865 395.417 195.933 395.625 195.919 395.835C195.914 395.94 195.889 396.043 195.844 396.138C195.799 396.233 195.736 396.318 195.658 396.388C195.58 396.458 195.488 396.512 195.389 396.546C195.29 396.58 195.185 396.594 195.08 396.587V396.587Z" fill="#0D76E3"/>
<path d="M145.659 445.519C143.982 445.538 142.362 444.913 141.133 443.771C141.005 443.65 140.921 443.491 140.892 443.317C140.864 443.143 140.893 442.965 140.976 442.81C146.865 431.66 155.673 427.187 160.968 428.62C161.171 428.677 161.343 428.811 161.448 428.995C161.552 429.178 161.581 429.394 161.527 429.598C161.503 429.701 161.458 429.798 161.395 429.883C161.331 429.968 161.251 430.039 161.16 430.091C161.068 430.144 160.966 430.177 160.861 430.188C160.756 430.2 160.649 430.189 160.548 430.157C155.882 428.899 148.001 433.338 142.688 442.985C143.867 443.762 145.305 444.044 146.69 443.771C151.077 443.159 156.739 438.878 159.849 433.775C159.97 433.615 160.145 433.506 160.342 433.469C160.539 433.432 160.742 433.47 160.912 433.575C161.083 433.679 161.208 433.844 161.263 434.036C161.319 434.228 161.301 434.434 161.212 434.614C157.875 440.066 151.723 444.68 146.9 445.361C146.49 445.439 146.076 445.492 145.659 445.519V445.519Z" fill="#0D76E3"/>
<path d="M163.572 458.59C163.419 458.582 163.269 458.541 163.135 458.468C156.913 454.414 156.756 442.845 159.797 434.002C159.829 433.903 159.88 433.811 159.947 433.732C160.014 433.653 160.097 433.588 160.189 433.541C160.282 433.494 160.383 433.466 160.487 433.458C160.59 433.45 160.694 433.463 160.793 433.495C160.994 433.563 161.16 433.708 161.255 433.898C161.35 434.088 161.366 434.307 161.3 434.509C158.521 442.513 158.643 452.666 163.292 456.581C167.766 447.336 166.787 435.61 163.502 432.622C163.426 432.55 163.365 432.463 163.323 432.367C163.282 432.271 163.26 432.167 163.26 432.062C163.26 431.958 163.282 431.854 163.323 431.758C163.365 431.662 163.426 431.575 163.502 431.503C163.575 431.429 163.662 431.37 163.758 431.33C163.854 431.29 163.957 431.27 164.061 431.27C164.165 431.27 164.268 431.29 164.364 431.33C164.46 431.37 164.547 431.429 164.62 431.503C168.779 435.418 169.461 448.507 164.323 458.223C164.269 458.318 164.196 458.402 164.109 458.468C164.022 458.534 163.922 458.582 163.816 458.608L163.572 458.59Z" fill="#0D76E3"/>
<path d="M186.342 403.315C181.379 403.123 177.832 396.5 177.604 390.435C177.6 390.225 177.678 390.021 177.821 389.868C177.965 389.714 178.163 389.623 178.373 389.614C178.479 389.607 178.584 389.621 178.684 389.657C178.783 389.692 178.874 389.748 178.951 389.82C179.028 389.892 179.09 389.979 179.132 390.076C179.174 390.173 179.195 390.277 179.195 390.383C179.369 395.626 182.48 401.567 186.377 401.725C186.568 401.753 186.742 401.849 186.868 401.995C186.994 402.141 187.063 402.327 187.063 402.52C187.063 402.713 186.994 402.899 186.868 403.045C186.742 403.191 186.568 403.287 186.377 403.315H186.342Z" fill="#0D76E3"/>
<path d="M180.191 410.428H180.069C176.905 409.921 173.393 404.154 172.851 399.942C172.829 399.834 172.83 399.723 172.853 399.615C172.876 399.507 172.921 399.406 172.985 399.316C173.049 399.226 173.131 399.151 173.225 399.094C173.32 399.037 173.425 399.001 173.534 398.986C173.643 398.972 173.754 398.98 173.86 399.01C173.966 399.041 174.065 399.092 174.15 399.162C174.235 399.232 174.305 399.319 174.355 399.417C174.405 399.515 174.434 399.623 174.441 399.732C174.931 403.525 178.111 408.47 180.331 408.802C180.523 408.843 180.694 408.952 180.811 409.11C180.929 409.268 180.984 409.464 180.967 409.66C180.949 409.855 180.861 410.038 180.718 410.173C180.575 410.308 180.387 410.386 180.191 410.393V410.428Z" fill="#0D76E3"/>
<path d="M174.599 417.4H174.459C171.82 416.928 168.727 411.756 168.255 408.872C168.238 408.769 168.241 408.663 168.265 408.561C168.289 408.459 168.334 408.363 168.396 408.278C168.457 408.193 168.536 408.122 168.626 408.068C168.715 408.014 168.815 407.978 168.919 407.963C169.021 407.943 169.127 407.945 169.229 407.967C169.331 407.989 169.427 408.031 169.512 408.092C169.597 408.152 169.669 408.229 169.723 408.318C169.778 408.408 169.813 408.507 169.828 408.61C170.282 411.354 173.113 415.6 174.738 415.828C174.931 415.868 175.102 415.977 175.219 416.135C175.336 416.293 175.392 416.489 175.374 416.685C175.357 416.881 175.269 417.063 175.126 417.199C174.983 417.334 174.795 417.412 174.599 417.418V417.4Z" fill="#0D76E3"/>
<path d="M168.5 423.901H168.325C167.314 423.587 166.403 423.013 165.683 422.238C164.962 421.462 164.457 420.511 164.218 419.48C164.171 419.274 164.207 419.057 164.318 418.877C164.429 418.697 164.607 418.569 164.812 418.519C165.018 418.471 165.235 418.507 165.415 418.618C165.595 418.73 165.724 418.907 165.773 419.113C165.95 419.848 166.306 420.528 166.809 421.092C167.312 421.656 167.947 422.087 168.657 422.346C168.862 422.392 169.041 422.517 169.155 422.693C169.27 422.869 169.31 423.084 169.269 423.29C169.229 423.464 169.131 423.619 168.991 423.73C168.852 423.841 168.678 423.902 168.5 423.901V423.901Z" fill="#0D76E3"/>
<path d="M191.865 382.152C191.515 382.152 191.172 382.062 190.868 381.89C190.465 381.605 190.143 381.22 189.935 380.772C189.726 380.325 189.639 379.83 189.68 379.338C189.692 378.335 189.942 377.35 190.41 376.462C190.878 375.575 191.55 374.812 192.371 374.236C192.711 374.012 193.104 373.884 193.51 373.865C193.916 373.847 194.32 373.939 194.678 374.131C195.089 374.41 195.417 374.793 195.629 375.242C195.841 375.691 195.929 376.188 195.884 376.682C195.87 377.684 195.617 378.669 195.146 379.553C194.675 380.438 193.999 381.197 193.175 381.768C192.777 382.002 192.327 382.134 191.865 382.152V382.152ZM193.612 375.459C193.43 375.469 193.255 375.529 193.105 375.634C192.524 376.063 192.05 376.621 191.72 377.263C191.39 377.906 191.212 378.616 191.2 379.338C191.2 380.02 191.41 380.404 191.602 380.509C191.795 380.614 192.127 380.509 192.301 380.387C192.88 379.956 193.353 379.397 193.683 378.755C194.013 378.113 194.192 377.404 194.206 376.682C194.206 375.983 193.997 375.616 193.804 375.511C193.767 375.486 193.726 375.468 193.682 375.459H193.612Z" fill="#0D76E3"/>
<path d="M167.521 403.088C167.367 403.086 167.216 403.041 167.086 402.957C166.956 402.874 166.853 402.756 166.787 402.616C165.721 400.239 160.793 401.497 160.74 401.497C160.601 401.535 160.454 401.534 160.315 401.494C160.177 401.454 160.052 401.377 159.954 401.27C159.851 401.171 159.78 401.043 159.749 400.903C159.718 400.763 159.729 400.618 159.779 400.484C161.212 396.22 169.513 386.853 176.171 385.595C176.274 385.574 176.379 385.575 176.481 385.595C176.583 385.616 176.68 385.657 176.766 385.716C176.852 385.774 176.926 385.849 176.983 385.936C177.04 386.024 177.079 386.121 177.098 386.224C177.12 386.326 177.122 386.432 177.102 386.535C177.083 386.638 177.042 386.736 176.983 386.823C176.924 386.91 176.848 386.983 176.76 387.04C176.671 387.096 176.572 387.133 176.469 387.15C171.051 388.181 164.236 395.416 161.876 399.663C163.851 399.4 167.119 399.418 168.255 401.969C168.298 402.064 168.323 402.167 168.326 402.272C168.329 402.376 168.312 402.48 168.274 402.578C168.237 402.676 168.18 402.765 168.108 402.84C168.036 402.916 167.949 402.976 167.853 403.018C167.749 403.066 167.636 403.09 167.521 403.088V403.088Z" fill="#0D76E3"/>
<path opacity="0.1" d="M223.356 427.729C222.445 427.714 221.547 427.515 220.716 427.143C219.885 426.772 219.137 426.237 218.518 425.569C217.899 424.901 217.422 424.115 217.115 423.258C216.808 422.4 216.678 421.49 216.732 420.581V326.667C216.771 324.665 217.331 322.707 218.358 320.988C219.319 319.253 220.724 317.806 222.429 316.793L290.479 277.561C291.647 276.861 292.98 276.487 294.342 276.477C295.646 276.461 296.925 276.844 298.005 277.575C299.086 278.306 299.918 279.35 300.388 280.567V280.567C300.7 281.563 300.865 282.599 300.877 283.642V377.521C300.802 379.5 300.247 381.43 299.261 383.147C298.274 384.864 296.886 386.315 295.215 387.377L227.06 426.61C226.669 426.829 226.267 427.028 225.855 427.204C225.057 427.517 224.212 427.694 223.356 427.729V427.729Z" fill="black"/>
<path d="M305.316 288.867C305.252 287.721 304.918 286.605 304.341 285.612C303.764 284.619 302.96 283.776 301.996 283.153L299.305 281.598C298.283 281.072 297.151 280.797 296.002 280.797C294.853 280.797 293.72 281.072 292.699 281.598L224.666 320.813C223.699 321.438 222.894 322.283 222.317 323.28C221.74 324.276 221.407 325.395 221.346 326.545V420.459C221.411 421.608 221.746 422.725 222.323 423.721C222.899 424.716 223.702 425.562 224.666 426.191L227.358 427.746C228.382 428.264 229.513 428.533 230.66 428.533C231.808 428.533 232.939 428.264 233.963 427.746L301.996 388.513C302.965 387.886 303.772 387.038 304.349 386.039C304.926 385.039 305.258 383.917 305.316 382.764V288.867Z" fill="#FAFAFA"/>
<path d="M221.276 420.459C221.341 421.608 221.676 422.725 222.253 423.721C222.83 424.716 223.632 425.562 224.596 426.191L227.288 427.746C228.221 428.212 229.241 428.476 230.283 428.521C231.325 428.566 232.364 428.391 233.334 428.008C231.779 428.585 230.59 427.711 230.59 425.824V331.91C230.63 330.762 230.961 329.644 231.552 328.659L222.255 323.347C221.658 324.336 221.321 325.46 221.276 326.615V420.459Z" fill="#E0E0E0"/>
<path d="M305.124 287.941C304.739 286.526 303.464 286.089 301.943 286.963L233.893 326.195C232.923 326.776 232.121 327.602 231.569 328.589L222.255 323.347C222.813 322.335 223.618 321.481 224.596 320.865L292.611 281.65C293.639 281.134 294.773 280.865 295.923 280.865C297.073 280.865 298.207 281.134 299.235 281.65L301.943 283.205C302.766 283.739 303.472 284.433 304.019 285.247C304.566 286.061 304.941 286.978 305.124 287.941V287.941Z" fill="#F0F0F0"/>
<path d="M250.81 387.063C247.195 387.095 243.628 386.23 240.429 384.546C240.338 384.502 240.257 384.439 240.191 384.363C240.124 384.287 240.073 384.199 240.041 384.103C240.008 384.007 239.995 383.906 240.002 383.805C240.008 383.704 240.035 383.606 240.08 383.515L266.52 325.846C266.568 325.726 266.647 325.621 266.748 325.541C266.849 325.462 266.969 325.41 267.097 325.391C267.226 325.365 267.359 325.372 267.485 325.411C267.61 325.451 267.723 325.523 267.813 325.619L294.272 352.758C294.394 352.884 294.47 353.047 294.489 353.221C294.508 353.395 294.468 353.57 294.376 353.719C286.897 366.337 277.408 376.438 267.639 382.012C262.567 385.137 256.764 386.878 250.81 387.063V387.063ZM241.845 383.48C248.835 386.975 257.73 385.892 266.835 380.632C276.237 375.214 285.394 365.568 292.699 353.422L267.481 327.558L241.845 383.48Z" fill="#0D76E3"/>
<path d="M248.66 394.804C244.606 394.84 240.607 393.867 237.021 391.973C236.931 391.929 236.85 391.867 236.783 391.791C236.716 391.715 236.665 391.626 236.633 391.53C236.6 391.435 236.587 391.333 236.594 391.232C236.601 391.132 236.627 391.033 236.672 390.942L266.52 325.846C266.568 325.726 266.647 325.621 266.748 325.541C266.849 325.462 266.969 325.41 267.097 325.391C267.226 325.365 267.359 325.372 267.485 325.411C267.61 325.451 267.723 325.523 267.814 325.619L297.662 356.236C297.783 356.366 297.858 356.531 297.877 356.708C297.896 356.884 297.857 357.062 297.767 357.214C289.361 371.422 278.648 382.746 267.639 389.107C261.919 392.632 255.376 394.596 248.66 394.804V394.804ZM238.437 390.907C246.423 394.822 256.472 393.703 266.835 387.727C277.495 381.575 287.806 370.653 296.089 356.917L267.481 327.558L238.437 390.907Z" fill="#0D76E3"/>
<path d="M237.388 392.061C237.279 392.086 237.166 392.086 237.056 392.061C236.962 392.018 236.877 391.956 236.807 391.88C236.736 391.804 236.681 391.714 236.646 391.617C236.61 391.519 236.594 391.416 236.598 391.312C236.603 391.208 236.628 391.106 236.672 391.012L266.52 325.916C266.568 325.796 266.646 325.691 266.748 325.611C266.849 325.531 266.969 325.48 267.097 325.461C267.226 325.435 267.359 325.442 267.485 325.481C267.61 325.521 267.723 325.592 267.813 325.688L297.662 356.306C297.812 356.456 297.897 356.661 297.897 356.874C297.897 357.087 297.812 357.291 297.662 357.442C297.589 357.516 297.502 357.574 297.406 357.614C297.31 357.655 297.207 357.675 297.103 357.675C296.999 357.675 296.896 357.655 296.8 357.614C296.704 357.574 296.616 357.516 296.543 357.442L267.499 327.646L238.14 391.694C238.058 391.815 237.945 391.913 237.813 391.978C237.681 392.042 237.535 392.071 237.388 392.061V392.061Z" fill="#0D76E3"/>
<path d="M266.678 344.125C266.39 344.132 266.11 344.032 265.891 343.846C265.035 343.129 265.245 341.015 266.485 337.537C266.538 337.398 266.628 337.275 266.745 337.183C266.862 337.09 267.002 337.032 267.149 337.013C267.301 336.997 267.454 337.025 267.59 337.094C267.726 337.162 267.84 337.267 267.918 337.397C268.81 338.767 269.193 340.405 269.002 342.028C268.904 342.396 268.733 342.741 268.498 343.041C268.264 343.341 267.972 343.591 267.639 343.776C267.357 343.979 267.024 344.1 266.678 344.125V344.125ZM267.359 340.106C267.145 340.847 267.011 341.608 266.957 342.378C267.209 342.202 267.389 341.941 267.464 341.644C267.549 341.13 267.513 340.603 267.359 340.106V340.106Z" fill="#0D76E3"/>
<path d="M266.678 373.222C266.391 373.221 266.114 373.122 265.891 372.943C265.035 372.226 265.245 370.094 266.485 366.634C266.536 366.493 266.626 366.37 266.743 366.277C266.86 366.185 267.001 366.127 267.149 366.11C267.3 366.088 267.453 366.111 267.589 366.177C267.726 366.242 267.841 366.346 267.918 366.477C268.803 367.856 269.185 369.497 269.002 371.125C268.901 371.492 268.729 371.835 268.495 372.135C268.261 372.435 267.97 372.686 267.639 372.873C267.353 373.069 267.022 373.189 266.678 373.222V373.222ZM267.359 369.185C267.147 369.926 267.012 370.688 266.957 371.457C267.213 371.285 267.393 371.023 267.464 370.723C267.549 370.209 267.513 369.683 267.359 369.185V369.185Z" fill="#0D76E3"/>
<path d="M281.969 360.64C281.818 360.645 281.669 360.615 281.532 360.552C280.291 360.08 280.169 357.512 280.274 355.415C280.283 355.298 280.318 355.184 280.375 355.081C280.433 354.979 280.511 354.89 280.606 354.82C280.699 354.75 280.808 354.702 280.923 354.68C281.039 354.659 281.157 354.665 281.27 354.698C281.514 354.698 283.664 355.345 284.206 356.935C284.338 357.413 284.344 357.918 284.221 358.4C284.099 358.881 283.852 359.322 283.507 359.679C283.339 359.944 283.113 360.168 282.847 360.334C282.581 360.5 282.281 360.605 281.969 360.64V360.64ZM281.846 356.638C281.838 357.391 281.92 358.142 282.091 358.875L282.266 358.682C282.65 358.176 282.79 357.774 282.685 357.459C282.509 357.097 282.212 356.807 281.846 356.638V356.638Z" fill="#0D76E3"/>
<path d="M251.701 378.045H251.526C251.267 378.032 251.016 377.949 250.801 377.804C250.585 377.659 250.413 377.459 250.303 377.224C249.604 375.704 251.788 372.366 252.749 371.003C252.847 370.87 252.983 370.77 253.139 370.717C253.295 370.664 253.463 370.66 253.621 370.705C253.78 370.751 253.92 370.845 254.023 370.973C254.127 371.101 254.189 371.258 254.2 371.422C254.2 372.191 254.41 376.158 252.977 377.539C252.809 377.705 252.61 377.835 252.391 377.922C252.171 378.01 251.937 378.051 251.701 378.045V378.045ZM252.505 374.428C252.084 375.067 251.826 375.799 251.753 376.56C251.753 376.455 251.753 376.438 251.876 376.368C252.259 375.791 252.476 375.12 252.505 374.428V374.428Z" fill="#0D76E3"/>
<path d="M259.705 362.178C259.491 362.185 259.278 362.14 259.086 362.046C258.894 361.951 258.728 361.81 258.604 361.636C257.748 360.43 259.093 357.477 260.351 355.205C260.435 355.065 260.557 354.953 260.703 354.882C260.848 354.811 261.012 354.783 261.173 354.803C261.334 354.828 261.484 354.901 261.603 355.014C261.722 355.126 261.803 355.272 261.837 355.432C261.924 355.834 262.658 359.451 261.487 361.181C261.328 361.435 261.116 361.652 260.866 361.818C260.616 361.984 260.333 362.094 260.037 362.143C259.928 362.169 259.817 362.181 259.705 362.178ZM260.561 358.438C260.244 359.101 260.026 359.808 259.915 360.535C260.026 360.483 260.118 360.397 260.177 360.29C260.473 359.72 260.606 359.079 260.561 358.438V358.438Z" fill="#0D76E3"/>
<path d="M273.755 354.174C273.565 354.178 273.378 354.13 273.214 354.034C272.252 353.527 272.06 351.622 272.619 348.337C272.644 348.207 272.7 348.086 272.783 347.982C272.865 347.879 272.971 347.797 273.091 347.743C273.204 347.683 273.33 347.652 273.458 347.652C273.586 347.652 273.712 347.683 273.825 347.743C274.405 348.087 274.909 348.545 275.308 349.088C275.708 349.632 275.994 350.25 276.149 350.906C276.19 351.377 276.118 351.851 275.939 352.289C275.759 352.727 275.478 353.115 275.118 353.422C274.952 353.631 274.746 353.805 274.512 353.934C274.278 354.063 274.021 354.144 273.755 354.174V354.174ZM274.07 350.032C273.984 350.81 273.984 351.596 274.07 352.374V352.374C274.248 352.228 274.391 352.044 274.488 351.835C274.585 351.626 274.633 351.398 274.629 351.168C274.541 350.734 274.322 350.337 274 350.032H274.07Z" fill="#0D76E3"/>
<path d="M531.503 462.662L694.603 556.838L797.307 497.544L634.19 403.35L531.503 462.662Z" fill="#0D76E3"/>
<path opacity="0.5" d="M531.503 462.662L694.603 556.838L797.307 497.544L634.19 403.35L531.503 462.662Z" fill="black"/>
<path opacity="0.15" d="M781.614 486.779L643.766 407.125C641.82 406.133 639.667 405.617 637.484 405.617C635.3 405.617 633.147 406.133 631.201 407.125L582.741 435.086C570.235 433.813 557.624 436.115 546.375 441.726C529.423 450.779 527.047 465.231 541.132 474.004C554.623 482.427 578.425 482.514 595.306 474.441L699.094 534.4C701.04 535.391 703.193 535.908 705.376 535.908C707.56 535.908 709.713 535.391 711.659 534.4L781.561 494.031C785.091 492.021 785.091 488.771 781.614 486.779Z" fill="black"/>
<path d="M634.19 256.87V403.35L531.503 462.662L507.317 330.127L634.19 256.87Z" fill="#0D76E3"/>
<path opacity="0.4" d="M507.317 330.127L634.19 256.87V403.35L531.503 462.662L507.317 330.127Z" fill="black"/>
<path d="M821.476 365.009L797.307 497.544L634.19 403.35V256.87L821.476 365.009Z" fill="#0D76E3"/>
<path opacity="0.3" d="M821.476 365.009L797.307 497.544L634.19 403.35V256.87L821.476 365.009Z" fill="black"/>
<path d="M829.776 365.009H821.476L634.19 256.939L507.317 330.197L509.187 331.263L499.016 330.197C499.095 329.397 499.384 328.631 499.853 327.977C500.323 327.324 500.956 326.806 501.69 326.475L627.741 253.619C629.738 252.611 631.944 252.086 634.181 252.086C636.418 252.086 638.623 252.611 640.621 253.619L827.12 361.286C827.837 361.671 829.776 363.244 829.776 365.009Z" fill="#455A64"/>
<path d="M727.265 202.346L722.826 194.307C724.36 193.524 726.06 193.123 727.782 193.138C729.504 193.154 731.197 193.584 732.717 194.394H732.63C733.991 195.319 735.049 196.625 735.67 198.148C736.292 199.671 736.45 201.344 736.125 202.957C731.266 223.142 714.245 295.263 713.843 295.98L706.416 291.646L727.265 202.346Z" fill="#0D76E3"/>
<path opacity="0.25" d="M727.265 202.346L722.826 194.307C724.36 193.524 726.06 193.123 727.782 193.138C729.504 193.154 731.197 193.584 732.717 194.394H732.63C733.991 195.319 735.049 196.625 735.67 198.148C736.292 199.671 736.45 201.344 736.125 202.957C731.266 223.142 714.245 295.263 713.843 295.98L706.416 291.646L727.265 202.346Z" fill="black"/>
<path d="M739.2 198.239C740.637 199.208 741.867 200.454 742.818 201.903C743.769 203.352 744.422 204.976 744.74 206.68L761.185 323.207L752.919 318.436L735.618 203.814L729.466 198.361C730.967 197.584 732.629 197.169 734.319 197.147C736.009 197.126 737.68 197.5 739.2 198.239V198.239Z" fill="#0D76E3"/>
<path d="M592.545 269.609L595.201 279.011L727.265 202.346L722.826 194.307L592.545 269.609Z" fill="#0D76E3"/>
<path opacity="0.25" d="M592.545 269.609L595.201 279.011L727.265 202.346L722.826 194.307L592.545 269.609Z" fill="black"/>
<path d="M729.466 198.361L735.618 203.814L600.077 282.803L595.201 275.236L729.466 198.361Z" fill="#0D76E3"/>
<path opacity="0.05" d="M598.225 395.94C616.33 406.426 645.671 406.426 663.776 395.94C681.881 385.455 681.881 368.539 663.776 358.088C645.671 347.638 616.33 347.603 598.225 358.088C580.12 368.574 580.12 385.49 598.225 395.94Z" fill="black"/>
<path d="M674.733 376.752V298.601H596.53V376.752C596.198 382.764 600.025 388.845 607.941 393.441C623.215 402.267 647.995 402.267 663.286 393.441C671.29 388.845 675.065 382.764 674.733 376.752Z" fill="#EBEBEB"/>
<path d="M607.994 314.609C623.267 323.434 648.048 323.434 663.339 314.609C678.63 305.784 678.613 291.489 663.339 282.664C648.065 273.838 623.267 273.926 607.994 282.664C592.72 291.401 592.703 305.749 607.994 314.609Z" fill="#FAFAFA"/>
<path d="M609.671 313.281C624.019 321.372 647.296 321.372 661.644 313.281C675.991 305.19 675.991 292.03 661.644 283.922C647.296 275.813 624.019 275.831 609.671 283.922C595.324 292.013 595.411 305.172 609.671 313.281Z" fill="#EBEBEB"/>
<path d="M661.644 287.731C647.296 279.623 624.019 279.623 609.671 287.731C603.363 291.227 599.833 295.84 599.081 300.506C599.833 305.155 603.363 309.698 609.671 313.281C624.019 321.372 647.296 321.372 661.644 313.281C667.97 309.698 671.482 305.155 672.251 300.506C671.482 295.84 667.97 291.296 661.644 287.731Z" fill="#F5F5F5"/>
<path d="M596.53 363.541C596.53 369.36 600.287 375.197 607.994 379.636C623.267 388.373 648.048 388.373 663.339 379.636C670.976 375.214 674.803 369.447 674.803 363.663V311.341C674.803 317.125 670.976 322.91 663.339 327.314C648.048 336.051 623.267 336.051 607.994 327.314C600.287 322.875 596.477 317.038 596.53 311.219V363.541Z" fill="#0D76E3"/>
<path opacity="0.5" d="M596.53 363.541C596.53 369.36 600.287 375.197 607.994 379.636C623.267 388.373 648.048 388.373 663.339 379.636C670.976 375.214 674.803 369.447 674.803 363.663V311.341C674.803 317.125 670.976 322.91 663.339 327.314C648.048 336.051 623.267 336.051 607.994 327.314C600.287 322.875 596.477 317.038 596.53 311.219V363.541Z" fill="white"/>
<path opacity="0.05" d="M651.683 398.072C637.3 401.777 619.807 400.274 607.994 393.424C600.042 388.863 596.268 382.781 596.582 376.735V298.601C596.582 304.386 600.427 310.17 608.064 314.592C609.28 315.3 610.541 315.931 611.838 316.479V386.259C611.768 392.795 633.578 400.554 651.683 398.072Z" fill="black"/>
<path d="M644.587 312.547L640.446 310.135C637.073 308.195 636.164 305.557 638.436 304.263C640.708 302.97 645.252 303.477 648.624 305.417L652.766 307.811C656.139 309.768 657.048 312.39 654.776 313.7C652.504 315.011 647.96 314.487 644.587 312.547Z" fill="#E0E0E0"/>
<path d="M642.473 308.423C644.21 308.423 645.619 307.609 645.619 306.605C645.619 305.601 644.21 304.788 642.473 304.788C640.736 304.788 639.327 305.601 639.327 306.605C639.327 307.609 640.736 308.423 642.473 308.423Z" fill="#F5F5F5"/>
<path d="M648.485 312.337C649.177 312.682 649.939 312.861 650.713 312.861C651.486 312.861 652.249 312.682 652.941 312.337C653.212 312.247 653.448 312.073 653.616 311.841C653.783 311.609 653.873 311.33 653.873 311.044C653.873 310.758 653.783 310.479 653.616 310.247C653.448 310.015 653.212 309.841 652.941 309.751C652.249 309.406 651.486 309.227 650.713 309.227C649.939 309.227 649.177 309.406 648.485 309.751C648.213 309.841 647.977 310.015 647.81 310.247C647.642 310.479 647.552 310.758 647.552 311.044C647.552 311.33 647.642 311.609 647.81 311.841C647.977 312.073 648.213 312.247 648.485 312.337V312.337Z" fill="#F5F5F5"/>
<path d="M729.379 423.657C736.369 380.579 749.563 325.986 776.039 285.267C802.514 244.549 827.365 239.446 834.075 270.623C840.786 301.799 816.6 389.457 800.085 425.789C756.676 521.537 721.637 471.61 729.379 423.657Z" fill="#F0997A"/>
<g opacity="0.8">
<path opacity="0.8" d="M825.53 274.555C825.53 274.555 824.726 274.939 823.276 275.533C821.825 276.128 819.78 276.914 817.404 277.77C816.215 278.242 814.905 278.714 813.542 279.186C812.179 279.658 810.763 280.252 809.278 280.724L800.12 284.131L795.524 285.879C794.021 286.491 792.484 287.032 791.051 287.627L786.856 289.374C785.528 289.951 784.253 290.475 783.047 290.929C780.722 291.943 778.66 292.677 777.227 293.254C775.794 293.83 774.903 294.058 774.903 294.058C774.903 294.058 775.427 293.324 776.423 292.118C777.803 290.464 779.31 288.921 780.932 287.504C781.946 286.648 783.047 285.757 784.287 284.83C785.562 283.867 786.892 282.98 788.272 282.174C789.732 281.271 791.237 280.443 792.781 279.693C794.336 278.871 795.996 278.26 797.639 277.561C799.282 276.862 800.977 276.355 802.672 275.918C804.367 275.481 806.045 275.114 807.67 274.747C810.644 274.179 813.66 273.863 816.687 273.803C819.654 273.71 822.621 273.962 825.53 274.555Z" fill="#FFBDA7"/>
</g>
<g opacity="0.8">
<path opacity="0.8" d="M787.503 431.101C787.503 431.101 786.682 431.503 785.249 432.08C783.816 432.657 781.754 433.478 779.377 434.334C778.171 434.789 776.878 435.26 775.515 435.732C774.152 436.204 772.736 436.798 771.233 437.27L762.094 440.765L757.497 442.513C755.977 443.124 754.457 443.649 753.024 444.26L748.812 446.008C747.501 446.585 746.226 447.109 745.02 447.563C742.678 448.577 740.616 449.311 739.183 449.888C737.75 450.464 736.876 450.691 736.876 450.691C736.876 450.691 737.383 449.957 738.379 448.752C739.761 447.1 741.275 445.563 742.905 444.156C743.919 443.299 745.002 442.408 746.243 441.464C747.525 440.465 748.861 439.538 750.245 438.686C751.678 437.847 753.146 436.938 754.736 436.204C756.327 435.47 757.952 434.771 759.595 434.09C761.237 433.408 762.95 432.884 764.645 432.342C766.34 431.8 768.018 431.556 769.625 431.189C772.598 430.612 775.615 430.296 778.643 430.245C781.62 430.181 784.594 430.468 787.503 431.101Z" fill="#FFBDA7"/>
</g>
<g opacity="0.8">
<path opacity="0.8" d="M824.149 301.205C824.149 301.205 823.118 301.712 821.336 302.463C819.553 303.215 817.107 304.316 814.136 305.539C808.212 308.073 800.33 311.044 792.466 313.98L770.709 321.861L763.352 324.5C761.604 325.164 760.451 325.479 760.451 325.479C760.451 325.479 761.097 324.552 762.373 323.067C763.115 322.155 763.928 321.302 764.802 320.516C765.898 319.43 767.065 318.42 768.297 317.492C774.647 312.494 781.773 308.569 789.39 305.871C796.967 302.978 804.928 301.212 813.017 300.628C815.704 300.417 818.404 300.417 821.091 300.628C823.031 300.96 824.149 301.205 824.149 301.205Z" fill="#FFBDA7"/>
</g>
<g opacity="0.8">
<path opacity="0.8" d="M814.573 333.028C814.573 333.028 813.559 333.622 811.777 334.461C809.994 335.3 807.617 336.523 804.682 337.956C798.81 340.648 791.016 343.793 783.204 346.694L777.332 348.791C775.445 349.543 773.488 350.119 771.653 350.801L761.429 354.156L753.88 356.55C752.028 357.127 750.874 357.372 750.874 357.372C751.432 356.483 752.039 355.625 752.692 354.803C753.396 353.842 754.179 352.942 755.033 352.112C756.085 350.977 757.205 349.909 758.389 348.914C764.676 343.672 771.84 339.583 779.552 336.838C787.168 333.983 795.191 332.361 803.318 332.032C806.046 331.95 808.775 332.091 811.48 332.452C813.437 332.714 814.573 333.028 814.573 333.028Z" fill="#FFBDA7"/>
</g>
<g opacity="0.8">
<path opacity="0.8" d="M795.315 399.156C795.315 399.156 794.406 399.68 792.815 400.432C791.225 401.183 789.058 402.284 786.419 403.525C781.177 405.936 774.187 408.767 767.196 411.371L761.954 413.276C760.206 413.94 758.458 414.464 756.833 415.024L747.624 418.082L740.878 420.162C739.13 420.686 738.169 420.913 738.169 420.913C738.169 420.913 738.711 420.039 739.812 418.624C740.451 417.758 741.158 416.946 741.927 416.195C742.865 415.175 743.87 414.218 744.932 413.329C750.587 408.628 757.022 404.955 763.946 402.476C770.79 399.911 777.998 398.454 785.301 398.16C787.753 398.091 790.207 398.214 792.641 398.527C794.301 398.876 795.315 399.156 795.315 399.156Z" fill="#FFBDA7"/>
</g>
<g opacity="0.8">
<path opacity="0.8" d="M806.254 365.533C806.254 365.533 805.258 366.127 803.476 366.966C801.693 367.805 799.299 369.01 796.363 370.461C790.509 373.152 782.715 376.298 774.886 379.199L769.031 381.296C767.126 382.047 765.169 382.624 763.334 383.306L753.094 386.696L745.579 389.02C743.727 389.614 742.556 389.859 742.556 389.859C742.556 389.859 743.167 388.88 744.391 387.307C745.102 386.315 745.891 385.38 746.75 384.511C747.795 383.377 748.91 382.309 750.088 381.313C756.381 376.08 763.544 371.993 771.251 369.238C778.868 366.385 786.89 364.762 795.018 364.432C797.751 364.35 800.486 364.49 803.196 364.851C804.226 365.026 805.247 365.253 806.254 365.533Z" fill="#FFBDA7"/>
</g>
<path opacity="0.1" d="M707.797 474.284C731.617 474.284 750.927 463.134 750.927 449.381C750.927 435.627 731.617 424.478 707.797 424.478C683.977 424.478 664.667 435.627 664.667 449.381C664.667 463.134 683.977 474.284 707.797 474.284Z" fill="black"/>
<path d="M721.777 246.926V211.136L710.191 211.608L698.622 211.136V246.926C698.701 261.201 693.498 275.001 684.012 285.669C678.176 292.17 672.741 302.656 672.479 319.31V439.892C672.479 448.018 680.447 456.284 696.175 460.111C705.395 462.365 715.022 462.365 724.241 460.111C739.969 456.266 747.833 448.018 747.903 439.892V319.31C747.641 302.656 742.224 292.17 736.387 285.669C726.889 275.009 721.683 261.204 721.777 246.926V246.926Z" fill="#0D76E3"/>
<path opacity="0.5" d="M721.777 246.926V211.136L710.191 211.608L698.622 211.136V246.926C698.701 261.201 693.498 275.001 684.012 285.669C678.176 292.17 672.741 302.656 672.479 319.31V439.892C672.479 448.018 680.447 456.284 696.175 460.111C705.395 462.365 715.022 462.365 724.241 460.111C739.969 456.266 747.833 448.018 747.903 439.892V319.31C747.641 302.656 742.224 292.17 736.387 285.669C726.889 275.009 721.683 261.204 721.777 246.926V246.926Z" fill="black"/>
<path d="M721.795 207.169C721.803 207.07 721.803 206.971 721.795 206.872C721.77 205.806 721.441 204.768 720.847 203.883C720.252 202.997 719.417 202.3 718.439 201.874C715.898 200.59 713.091 199.921 710.243 199.921C707.396 199.921 704.589 200.59 702.047 201.874C700.747 202.552 699.699 203.63 699.059 204.95C698.987 205.059 698.928 205.176 698.884 205.299C698.876 205.375 698.876 205.451 698.884 205.526C698.781 205.77 698.722 206.031 698.709 206.295V223.771C698.796 224.797 699.156 225.781 699.752 226.62C700.348 227.459 701.159 228.123 702.1 228.542C704.641 229.826 707.448 230.495 710.296 230.495C713.143 230.495 715.95 229.826 718.492 228.542C719.299 228.151 720.01 227.589 720.578 226.894C721.145 226.2 721.555 225.391 721.777 224.522C721.834 224.406 721.875 224.282 721.9 224.155L721.795 207.169Z" fill="#37474F"/>
<path d="M718.387 211.346C715.848 212.638 713.04 213.311 710.191 213.311C707.342 213.311 704.534 212.638 701.995 211.346C697.451 208.742 697.451 204.495 701.995 201.874C704.536 200.59 707.344 199.921 710.191 199.921C713.038 199.921 715.846 200.59 718.387 201.874C722.983 204.513 722.983 208.742 718.387 211.346Z" fill="#455A64"/>
<path d="M747.903 322.997V388.618C747.903 394.228 744.233 399.785 736.859 404.014C725.29 410.69 707.971 412.123 693.974 408.243V342.57C707.954 346.467 725.29 345.052 736.859 338.341C744.233 334.164 747.903 328.59 747.903 322.997Z" fill="white"/>
<path d="M549.223 386.713C541.883 387.884 529.126 390.208 522.783 407.457C515.548 427.152 527.029 449.573 542.006 458.014C560.844 468.621 588.491 466.577 603.17 450.15C619.475 431.975 617.675 400.816 604.044 388.496C590.413 376.175 571.941 381.925 567.24 384.511C560.268 388.373 554.955 385.804 549.223 386.713Z" fill="#F28F8F"/>
<path opacity="0.1" d="M592.702 447.423C574.615 459.831 548.14 459.202 531.083 448.682C534.121 452.462 537.829 455.649 542.023 458.084C560.862 468.691 588.508 466.647 603.188 450.22C615.561 436.431 617.483 415.268 611.768 400.379C612.992 404.503 612.607 433.723 592.702 447.423Z" fill="black"/>
<g opacity="0.2">
<path opacity="0.2" d="M542.215 394.053C537.41 394.14 530.909 399.051 527.955 405.919C524.268 414.43 524.845 425.876 527.082 434.02C531.59 450.429 548.629 457.559 550.044 455.986C551.46 454.414 538.633 444.68 543.421 427.414C548.227 409.886 550.097 393.948 542.215 394.053Z" fill="white"/>
</g>
<g opacity="0.2">
<path opacity="0.2" d="M538.808 397.129C534.124 399.261 529.283 407.614 528.322 413.241C527.361 418.868 528.497 422.538 529.318 423.115C530.769 424.129 539.664 413.503 542.425 408.855C546.48 402.249 546.375 393.686 538.808 397.129Z" fill="white"/>
</g>
<path d="M558.363 400.239C555.549 398.492 553.015 397.635 552.037 400.886C551.058 404.136 558.45 408.313 565.877 405.307C573.304 402.301 575.436 397.041 575.017 394.542C575.017 394.542 572.116 400.362 567.048 401.532C564.091 402.14 561.015 401.682 558.363 400.239V400.239Z" fill="#B16668"/>
<path d="M565.703 403.332C564.871 396.236 562.987 389.304 560.11 382.764C555.654 373.309 548.856 367.036 547.126 366.476C544.347 365.759 541.45 365.622 538.615 366.075C534.701 366.511 530.297 369.57 531.73 371.003C533.163 372.436 538.93 372.942 546.445 378.657C553.959 384.371 561.771 396.133 562.522 403.63C563.028 403.878 563.593 403.982 564.154 403.929C564.715 403.877 565.251 403.67 565.703 403.332V403.332Z" fill="#37474F"/>
<path d="M546.811 366.407L546.427 366.302C543.871 365.787 541.246 365.722 538.668 366.11C535.978 366.342 533.478 367.592 531.678 369.605C531.468 370.199 532.412 370.88 535.959 371.02C539.479 371.187 542.987 370.498 546.182 369.01C547.668 368.346 548.122 367.036 546.811 366.407Z" fill="#455A64"/>
<path opacity="0.1" d="M559.324 391.502C555.34 382.991 545.221 376.56 538.476 374.026C541.308 375.288 543.982 376.878 546.445 378.762C553.959 384.494 561.771 396.237 562.522 403.734C563.025 403.974 563.584 404.071 564.139 404.015C564.693 403.96 565.222 403.754 565.668 403.42C565.668 403.42 565.406 400.746 564.619 396.901C564.776 400.449 562.994 399.348 559.324 391.502Z" fill="black"/>
<path d="M562.207 388.129C565.442 388.278 568.66 387.58 571.541 386.102C574.423 384.625 576.868 382.419 578.635 379.705C583.318 372.051 578.862 363.156 578.862 363.156C576.108 362.955 573.346 363.416 570.807 364.502C568.268 365.587 566.027 367.265 564.27 369.395C560.006 374.725 560.303 384.162 562.207 388.129Z" fill="#0D76E3"/>
<path opacity="0.3" d="M562.207 388.129C565.442 388.278 568.66 387.58 571.541 386.102C574.423 384.625 576.868 382.419 578.635 379.705C583.318 372.051 578.862 363.156 578.862 363.156C576.108 362.955 573.346 363.416 570.807 364.502C568.268 365.587 566.027 367.265 564.27 369.395C560.006 374.725 560.303 384.162 562.207 388.129Z" fill="black"/>
<path d="M578.914 363.156C576.16 362.955 573.399 363.416 570.86 364.502C568.321 365.587 566.079 367.265 564.322 369.395C560.006 374.725 560.303 384.162 562.26 388.129C565.283 374.026 578.914 363.156 578.914 363.156Z" fill="#0D76E3"/>
<path opacity="0.15" d="M533.163 406.408C547.143 415.146 572.361 414.936 589.399 405.867C606.438 396.797 608.815 382.362 594.642 373.589C580.469 364.816 555.34 365.061 538.406 374.131C521.472 383.201 519.13 397.636 533.163 406.408Z" fill="black"/>
<path d="M542.39 322.665C535.05 323.836 522.276 326.16 515.932 343.409C508.715 363.086 520.196 385.525 535.155 393.966C553.994 404.573 581.64 402.529 596.32 386.084C612.625 367.91 610.807 336.768 597.194 324.448C583.58 312.127 565.091 317.877 560.39 320.446C553.47 324.325 548.105 321.756 542.39 322.665Z" fill="#F28F8F"/>
<path opacity="0.1" d="M585.869 383.306C567.782 395.713 541.307 395.067 524.25 384.546C527.279 388.34 530.989 391.534 535.19 393.966C554.029 404.573 581.675 402.529 596.355 386.084C608.728 372.313 610.65 351.133 604.935 336.261C606.159 340.455 605.774 369.657 585.869 383.306Z" fill="black"/>
<g opacity="0.2">
<path opacity="0.2" d="M535.382 330.005C530.577 330.005 524.076 335.003 521.105 341.871C517.417 350.382 518.012 361.828 520.248 369.972C524.757 386.381 541.796 393.511 543.211 391.939C544.627 390.366 531.8 380.632 536.571 363.366C541.429 345.838 543.264 329.883 535.382 330.005Z" fill="white"/>
</g>
<g opacity="0.2">
<path opacity="0.2" d="M531.975 333.081C527.274 335.213 522.433 343.566 521.489 349.176C520.546 354.785 521.682 358.49 522.485 359.049C523.953 360.08 532.848 349.438 535.61 344.789C539.577 338.201 539.489 329.638 531.975 333.081Z" fill="white"/>
</g>
<path d="M551.512 336.174C548.716 334.426 546.182 333.57 545.186 336.82C544.19 340.071 551.617 344.248 559.027 341.242C566.437 338.236 568.604 332.976 568.184 330.477C568.184 330.477 565.283 336.279 560.215 337.467C557.252 338.065 554.174 337.607 551.512 336.174V336.174Z" fill="#B16668"/>
<path d="M558.835 339.284C558.012 332.191 556.139 325.259 553.277 318.716C548.821 309.279 542.023 302.988 540.276 302.446C537.504 301.719 534.612 301.576 531.782 302.027C527.868 302.481 523.447 305.522 524.88 306.972C526.313 308.423 532.097 308.912 539.612 314.626C547.126 320.341 554.92 332.102 555.689 339.599C556.192 339.838 556.751 339.935 557.306 339.88C557.86 339.824 558.389 339.618 558.835 339.284V339.284Z" fill="#37474F"/>
<path d="M539.979 302.376L539.577 302.254C537.021 301.741 534.397 301.67 531.817 302.044C529.128 302.28 526.63 303.53 524.827 305.539C524.617 306.133 525.544 306.815 529.109 306.955C532.628 307.112 536.134 306.422 539.332 304.945C540.835 304.298 541.237 302.883 539.979 302.376Z" fill="#455A64"/>
<path opacity="0.1" d="M552.491 327.436C548.507 318.908 538.388 312.494 531.643 309.96C534.475 311.223 537.149 312.812 539.612 314.696C547.109 320.411 554.92 332.172 555.689 339.669C556.192 339.908 556.751 340.005 557.306 339.95C557.86 339.894 558.389 339.688 558.835 339.354C558.835 339.354 558.573 336.681 557.769 332.836C557.943 336.384 556.161 335.3 552.491 327.436Z" fill="black"/>
<path d="M555.427 324.063C558.663 324.22 561.883 323.524 564.766 322.046C567.648 320.568 570.093 318.359 571.854 315.64C576.537 307.986 572.081 299.108 572.081 299.108C569.327 298.907 566.566 299.368 564.027 300.454C561.488 301.539 559.246 303.217 557.489 305.347C553.173 310.677 553.47 320.114 555.427 324.063Z" fill="#0D76E3"/>
<path opacity="0.3" d="M555.427 324.063C558.663 324.22 561.883 323.524 564.766 322.046C567.648 320.568 570.093 318.359 571.854 315.64C576.537 307.986 572.081 299.108 572.081 299.108C569.327 298.907 566.566 299.368 564.027 300.454C561.488 301.539 559.246 303.217 557.489 305.347C553.173 310.677 553.47 320.114 555.427 324.063Z" fill="black"/>
<path d="M572.081 299.108C569.327 298.907 566.566 299.368 564.027 300.454C561.488 301.539 559.246 303.217 557.489 305.347C553.173 310.677 553.47 320.114 555.427 324.063C558.433 309.943 572.081 299.108 572.081 299.108Z" fill="#0D76E3"/>
<path d="M611.244 436.029C611.244 447.179 602.192 459.761 591.042 459.761C579.893 459.761 570.945 447.179 570.945 436.029C571.1 430.777 573.295 425.791 577.065 422.13C580.835 418.469 585.883 416.422 591.138 416.422C596.393 416.422 601.442 418.469 605.212 422.13C608.982 425.791 611.177 430.777 611.331 436.029H611.244Z" fill="#0D76E3"/>
<path opacity="0.6" d="M611.244 436.029C611.244 447.179 602.192 459.761 591.042 459.761C579.893 459.761 570.945 447.179 570.945 436.029C571.1 430.777 573.295 425.791 577.065 422.13C580.835 418.469 585.883 416.422 591.138 416.422C596.393 416.422 601.442 418.469 605.212 422.13C608.982 425.791 611.177 430.777 611.331 436.029H611.244Z" fill="black"/>
<path d="M647.436 456.948C647.436 468.097 638.401 480.68 627.252 480.68C616.102 480.68 607.067 468.097 607.067 456.948C607.067 454.297 607.589 451.672 608.604 449.223C609.618 446.775 611.105 444.55 612.979 442.675C614.853 440.801 617.079 439.314 619.527 438.3C621.976 437.285 624.601 436.763 627.252 436.763C629.902 436.763 632.527 437.285 634.976 438.3C637.425 439.314 639.65 440.801 641.524 442.675C643.398 444.55 644.885 446.775 645.9 449.223C646.914 451.672 647.436 454.297 647.436 456.948V456.948Z" fill="#0D76E3"/>
<path opacity="0.6" d="M647.436 456.948C647.436 468.097 638.401 480.68 627.252 480.68C616.102 480.68 607.067 468.097 607.067 456.948C607.067 454.297 607.589 451.672 608.604 449.223C609.618 446.775 611.105 444.55 612.979 442.675C614.853 440.801 617.079 439.314 619.527 438.3C621.976 437.285 624.601 436.763 627.252 436.763C629.902 436.763 632.527 437.285 634.976 438.3C637.425 439.314 639.65 440.801 641.524 442.675C643.398 444.55 644.885 446.775 645.9 449.223C646.914 451.672 647.436 454.297 647.436 456.948V456.948Z" fill="black"/>
<path d="M683.628 477.866C683.628 489.015 674.593 501.598 663.444 501.598C652.294 501.598 643.259 489.015 643.259 477.866C643.259 472.513 645.386 467.379 649.171 463.594C652.957 459.808 658.09 457.682 663.444 457.682C668.797 457.682 673.931 459.808 677.716 463.594C681.501 467.379 683.628 472.513 683.628 477.866V477.866Z" fill="#0D76E3"/>
<path opacity="0.6" d="M683.628 477.866C683.628 489.015 674.593 501.598 663.444 501.598C652.294 501.598 643.259 489.015 643.259 477.866C643.259 472.513 645.386 467.379 649.171 463.594C652.957 459.808 658.09 457.682 663.444 457.682C668.797 457.682 673.931 459.808 677.716 463.594C681.501 467.379 683.628 472.513 683.628 477.866V477.866Z" fill="black"/>
<path d="M719.837 498.819C719.837 509.969 710.803 522.551 699.653 522.551C688.504 522.551 679.451 509.969 679.451 498.819C679.606 493.567 681.801 488.581 685.571 484.92C689.341 481.259 694.389 479.212 699.644 479.212C704.899 479.212 709.947 481.259 713.718 484.92C717.488 488.581 719.683 493.567 719.837 498.819V498.819Z" fill="#0D76E3"/>
<path opacity="0.6" d="M719.837 498.819C719.837 509.969 710.803 522.551 699.653 522.551C688.504 522.551 679.451 509.969 679.451 498.819C679.606 493.567 681.801 488.581 685.571 484.92C689.341 481.259 694.389 479.212 699.644 479.212C704.899 479.212 709.947 481.259 713.718 484.92C717.488 488.581 719.683 493.567 719.837 498.819V498.819Z" fill="black"/>
<path d="M759.787 475.384C759.787 486.534 750.752 499.116 739.602 499.116C728.453 499.116 719.488 486.516 719.488 475.384C719.642 470.132 721.838 465.146 725.608 461.485C729.378 457.824 734.426 455.777 739.681 455.777C744.936 455.777 749.984 457.824 753.754 461.485C757.524 465.146 759.719 470.132 759.874 475.384H759.787Z" fill="#0D76E3"/>
<path opacity="0.6" d="M759.787 475.384C759.787 486.534 750.752 499.116 739.602 499.116C728.453 499.116 719.488 486.516 719.488 475.384C719.642 470.132 721.838 465.146 725.608 461.485C729.378 457.824 734.426 455.777 739.681 455.777C744.936 455.777 749.984 457.824 753.754 461.485C757.524 465.146 759.719 470.132 759.874 475.384H759.787Z" fill="black"/>
<path d="M782.487 463.152C782.42 462.35 782.138 461.58 781.671 460.925C781.203 460.27 780.568 459.753 779.831 459.429L638.384 377.713C636.389 376.696 634.183 376.166 631.944 376.166C629.705 376.166 627.498 376.696 625.504 377.713L553.732 419.148C552.997 419.475 552.364 419.993 551.897 420.647C551.43 421.302 551.146 422.069 551.076 422.87C551.076 424.111 551.076 428.602 551.076 429.861C551.146 430.661 551.43 431.429 551.897 432.083C552.364 432.738 552.997 433.256 553.732 433.583L695.179 515.316C697.18 516.324 699.388 516.849 701.628 516.849C703.868 516.849 706.076 516.324 708.076 515.316L779.831 473.882C780.568 473.557 781.203 473.041 781.671 472.385C782.138 471.73 782.42 470.961 782.487 470.159V463.152Z" fill="#0D76E3"/>
<path opacity="0.2" d="M782.487 463.152C782.42 462.35 782.138 461.58 781.671 460.925C781.203 460.27 780.568 459.753 779.831 459.429L638.384 377.713C636.389 376.696 634.183 376.166 631.944 376.166C629.705 376.166 627.498 376.696 625.504 377.713L553.732 419.148C552.997 419.475 552.364 419.993 551.897 420.647C551.43 421.302 551.146 422.069 551.076 422.87C551.076 424.111 551.076 428.602 551.076 429.861C551.146 430.661 551.43 431.429 551.897 432.083C552.364 432.738 552.997 433.256 553.732 433.583L695.179 515.316C697.18 516.324 699.388 516.849 701.628 516.849C703.868 516.849 706.076 516.324 708.076 515.316L779.831 473.882C780.568 473.557 781.203 473.041 781.671 472.385C782.138 471.73 782.42 470.961 782.487 470.159V463.152Z" fill="black"/>
<path opacity="0.1" d="M701.75 509.881V516.871C699.469 516.919 697.213 516.384 695.197 515.316L553.749 433.6C553.011 433.277 552.372 432.761 551.902 432.106C551.431 431.451 551.146 430.681 551.076 429.878C551.076 428.62 551.076 424.163 551.076 422.888C551.153 423.689 551.441 424.455 551.911 425.109C552.381 425.763 553.015 426.281 553.749 426.61L695.197 508.343C697.216 509.401 699.471 509.931 701.75 509.881V509.881Z" fill="black"/>
<path d="M553.732 419.165L625.504 377.731C627.498 376.714 629.705 376.183 631.944 376.183C634.183 376.183 636.389 376.714 638.384 377.731L779.831 459.447C783.326 461.509 783.326 464.847 779.831 466.891L708.076 508.326C706.079 509.342 703.869 509.872 701.628 509.872C699.387 509.872 697.177 509.342 695.179 508.326L553.732 426.61C550.184 424.548 550.184 421.21 553.732 419.165Z" fill="#0D76E3"/>
<path opacity="0.1" d="M713.616 493.14C721.323 488.683 721.34 481.483 713.616 477.062C705.892 472.641 693.432 472.641 685.655 477.062C677.879 481.483 677.861 488.701 685.655 493.14C689.989 495.333 694.778 496.475 699.636 496.475C704.493 496.475 709.282 495.333 713.616 493.14Z" fill="black"/>
<path opacity="0.1" d="M753.565 470.142C761.272 465.685 761.29 458.486 753.565 454.047C745.841 449.608 733.381 449.625 725.604 454.047C717.828 458.468 717.81 465.685 725.604 470.124C733.399 474.563 745.859 474.511 753.565 470.142Z" fill="black"/>
<path opacity="0.1" d="M677.407 472.221C685.113 467.765 685.148 460.565 677.407 456.144C669.665 451.722 657.222 451.722 649.446 456.144C641.669 460.565 641.652 467.783 649.446 472.221C657.24 476.66 669.7 476.678 677.407 472.221Z" fill="black"/>
<path opacity="0.1" d="M717.356 449.171C725.063 444.732 725.098 437.532 717.356 433.093C709.614 428.655 697.172 428.672 689.395 433.093C681.618 437.515 681.601 444.732 689.395 449.189C693.73 451.381 698.52 452.523 703.378 452.52C708.235 452.516 713.024 451.369 717.356 449.171V449.171Z" fill="black"/>
<path opacity="0.1" d="M641.215 451.303C648.921 446.847 648.956 439.647 641.215 435.225C633.473 430.804 621.03 430.804 613.254 435.225C605.477 439.647 605.46 446.864 613.254 451.303C621.048 455.742 633.508 455.759 641.215 451.303Z" fill="black"/>
<path opacity="0.1" d="M681.164 428.2C688.871 423.762 688.906 416.562 681.164 412.123C673.422 407.684 660.962 407.701 653.203 412.123C645.444 416.544 645.409 423.762 653.203 428.2C660.997 432.639 673.457 432.674 681.164 428.2Z" fill="black"/>
<path opacity="0.1" d="M605.005 430.385C612.712 425.929 612.747 418.729 605.005 414.307C597.264 409.886 584.821 409.868 577.044 414.307C569.268 418.746 569.25 425.946 577.044 430.385C581.379 432.576 586.168 433.718 591.025 433.718C595.882 433.718 600.671 432.576 605.005 430.385Z" fill="black"/>
<path opacity="0.1" d="M644.955 407.23C652.679 402.791 652.696 395.591 644.955 391.152C637.213 386.713 624.77 386.731 616.994 391.152C609.217 395.573 609.199 402.791 616.994 407.23C624.788 411.668 637.248 411.756 644.955 407.23Z" fill="black"/>
<path d="M758.336 461.684C758.336 462.016 758.336 462.348 758.336 462.645C758.269 463.963 758.058 465.27 757.707 466.542C756.575 467.973 755.166 469.162 753.565 470.037C745.859 474.511 733.346 474.511 725.604 470.037C724.011 469.165 722.613 467.975 721.498 466.542C721.125 465.243 720.903 463.906 720.833 462.557C720.833 462.26 720.833 461.928 720.833 461.596C720.833 461.264 720.833 460.95 720.833 460.653C720.833 459.814 720.833 458.905 720.991 458.171C721.827 449.489 725.65 441.367 731.808 435.191C733.872 433.131 736.669 431.974 739.585 431.974C742.501 431.974 745.297 433.131 747.361 435.191C753.51 441.333 757.318 449.431 758.126 458.084C758.214 458.992 758.284 459.831 758.319 460.775C758.336 461.037 758.336 461.404 758.336 461.684Z" fill="#FAFAFA"/>
<path d="M722.144 440.748C722.162 441.062 722.162 441.377 722.144 441.691C722.095 443.017 721.884 444.332 721.515 445.606C720.394 447.041 718.99 448.231 717.391 449.101C713.058 451.299 708.269 452.445 703.41 452.445C698.552 452.445 693.762 451.299 689.43 449.101C687.836 448.229 686.439 447.04 685.323 445.606C684.942 444.303 684.719 442.96 684.659 441.604C684.659 441.307 684.659 440.992 684.659 440.66C684.659 440.328 684.659 439.996 684.659 439.699C684.659 438.878 684.659 438.039 684.816 437.235C685.63 428.541 689.449 420.402 695.616 414.22C697.677 412.161 700.471 411.005 703.384 411.005C706.297 411.005 709.091 412.161 711.152 414.22C717.308 420.358 721.123 428.457 721.934 437.113C722.022 438.004 722.074 438.86 722.109 439.787C722.139 440.106 722.151 440.427 722.144 440.748Z" fill="#FAFAFA"/>
<path d="M718.387 484.769C718.387 485.083 718.387 485.415 718.387 485.713C718.322 487.031 718.111 488.338 717.758 489.61C716.635 491.05 715.225 492.241 713.616 493.105C705.909 497.578 693.397 497.578 685.655 493.105C684.065 492.228 682.668 491.039 681.548 489.61C681.176 488.305 680.953 486.963 680.884 485.608C680.884 485.311 680.884 484.979 680.884 484.664C680.884 484.349 680.884 484 680.884 483.703C680.884 482.882 680.884 482.043 681.042 481.239C681.842 472.515 685.662 464.345 691.841 458.136C693.905 456.076 696.702 454.92 699.618 454.92C702.534 454.92 705.331 456.076 707.395 458.136C713.546 464.276 717.354 472.375 718.16 481.029C718.247 481.92 718.317 482.777 718.352 483.703C718.387 484.122 718.387 484.437 718.387 484.769Z" fill="#FAFAFA"/>
<path d="M682.195 463.816C682.213 464.136 682.213 464.457 682.195 464.777C682.146 466.097 681.935 467.406 681.566 468.674C680.441 470.105 679.038 471.294 677.442 472.169C673.11 474.371 668.32 475.519 663.461 475.519C658.602 475.519 653.812 474.371 649.481 472.169C647.882 471.297 646.479 470.108 645.356 468.674C644.99 467.375 644.773 466.038 644.71 464.689C644.71 464.392 644.71 464.06 644.71 463.728C644.71 463.396 644.71 463.082 644.71 462.785C644.71 461.946 644.71 461.037 644.867 460.303C645.664 451.578 649.484 443.407 655.667 437.2C657.728 435.142 660.522 433.985 663.435 433.985C666.348 433.985 669.142 435.142 671.203 437.2C677.357 443.34 681.171 451.438 681.985 460.093C681.985 461.002 682.125 461.841 682.16 462.785C682.193 463.127 682.205 463.472 682.195 463.816V463.816Z" fill="#FAFAFA"/>
<path d="M685.952 419.795C685.97 420.115 685.97 420.436 685.952 420.756C685.888 422.074 685.677 423.381 685.323 424.653C684.196 426.089 682.786 427.278 681.181 428.148C673.475 432.622 660.962 432.622 653.22 428.148C651.63 427.271 650.233 426.082 649.114 424.653C648.747 423.354 648.53 422.017 648.467 420.668C648.467 420.371 648.467 420.039 648.467 419.707C648.467 419.375 648.467 419.061 648.467 418.763C648.467 417.925 648.467 417.103 648.607 416.299C649.414 407.59 653.241 399.436 659.424 393.249C661.485 391.191 664.279 390.034 667.192 390.034C670.105 390.034 672.899 391.191 674.96 393.249C681.114 399.389 684.928 407.487 685.743 416.142C685.83 417.033 685.882 417.89 685.917 418.816C685.948 419.141 685.96 419.468 685.952 419.795V419.795Z" fill="#FAFAFA"/>
<path d="M649.743 398.859C649.761 399.179 649.761 399.5 649.743 399.82C649.69 401.138 649.485 402.446 649.131 403.717C647.999 405.148 646.591 406.337 644.989 407.212C637.283 411.668 624.77 411.668 617.028 407.212C615.434 406.341 614.037 405.151 612.922 403.717C612.55 402.418 612.327 401.082 612.258 399.733C612.258 399.435 612.258 399.103 612.258 398.771C612.258 398.439 612.258 398.125 612.258 397.828C612.258 396.989 612.258 396.08 612.415 395.346C613.219 386.634 617.039 378.476 623.215 372.278C625.276 370.22 628.07 369.064 630.983 369.064C633.896 369.064 636.69 370.22 638.751 372.278C644.904 378.419 648.718 386.517 649.533 395.171C649.533 396.063 649.69 396.919 649.708 397.863C649.74 398.194 649.751 398.526 649.743 398.859Z" fill="#FAFAFA"/>
<path d="M646.09 442.932C646.108 443.247 646.108 443.562 646.09 443.876C646.04 445.194 645.835 446.503 645.479 447.773C644.356 449.214 642.946 450.404 641.337 451.268C633.63 455.742 621.118 455.742 613.376 451.268C611.783 450.396 610.385 449.207 609.269 447.773C608.897 446.474 608.674 445.138 608.605 443.789C608.605 443.491 608.605 443.159 608.605 442.845C608.605 442.53 608.605 442.181 608.605 441.884C608.605 441.045 608.605 440.224 608.763 439.42C609.552 430.693 613.373 422.519 619.562 416.317C621.624 414.258 624.417 413.102 627.33 413.102C630.243 413.102 633.037 414.258 635.098 416.317C641.258 422.453 645.073 430.553 645.881 439.21C645.968 440.101 646.038 440.957 646.055 441.884C646.089 442.232 646.1 442.582 646.09 442.932Z" fill="#FAFAFA"/>
<path d="M609.811 421.996C609.829 422.317 609.829 422.637 609.811 422.958C609.764 424.278 609.552 425.587 609.182 426.855C608.054 428.29 606.645 429.479 605.04 430.35C597.334 434.824 584.838 434.824 577.079 430.35C575.489 429.473 574.092 428.284 572.973 426.855C572.606 425.555 572.389 424.219 572.326 422.87C572.326 422.573 572.326 422.241 572.326 421.909C572.326 421.577 572.326 421.262 572.326 420.965C572.326 420.127 572.326 419.218 572.466 418.484C573.277 409.76 577.102 401.591 583.283 395.381C585.344 393.323 588.138 392.166 591.051 392.166C593.964 392.166 596.758 393.323 598.819 395.381C604.976 401.526 608.791 409.631 609.601 418.292C609.689 419.183 609.741 420.039 609.776 420.965C609.809 421.308 609.821 421.652 609.811 421.996V421.996Z" fill="#FAFAFA"/>
<path d="M694.62 438.249L507.317 330.127L518.186 447.843C518.811 452.35 520.393 456.672 522.825 460.518C525.258 464.364 528.485 467.645 532.289 470.142L681.741 556.436C688.137 560.141 698.203 560.491 705.333 557.467L705.874 557.258L706.189 557.1C706.638 556.904 707.075 556.682 707.5 556.436L796.503 505.041C800.305 502.547 803.531 499.272 805.965 495.432C808.4 491.593 809.988 487.278 810.623 482.777L821.476 365.061L694.62 438.249ZM565.301 459.132C565.339 460.557 565.04 461.97 564.427 463.256C563.01 463.145 561.639 462.702 560.425 461.963L555.567 459.167C552.757 457.329 550.418 454.856 548.739 451.948C547.061 449.04 546.089 445.778 545.903 442.426V399.89C545.869 398.462 546.162 397.046 546.759 395.748C548.189 395.863 549.572 396.312 550.796 397.059L555.637 399.872C558.454 401.703 560.797 404.174 562.477 407.084C564.156 409.994 565.124 413.259 565.301 416.614V459.132ZM613.621 487.093C613.658 488.521 613.365 489.939 612.764 491.235C611.34 491.123 609.962 490.673 608.745 489.924L603.904 487.128C601.093 485.296 598.752 482.827 597.073 479.921C595.394 477.015 594.424 473.755 594.24 470.404V427.798C594.206 426.372 594.493 424.957 595.079 423.657C596.512 423.755 597.899 424.205 599.116 424.967L603.974 427.781C606.787 429.61 609.128 432.079 610.805 434.985C612.481 437.892 613.446 441.154 613.621 444.505V487.093ZM661.958 515.054C661.995 516.484 661.696 517.903 661.084 519.196C659.669 519.076 658.3 518.634 657.083 517.903L652.224 515.107C649.414 513.269 647.076 510.796 645.397 507.888C643.718 504.98 642.747 501.718 642.56 498.365V455.69C642.525 454.267 642.818 452.856 643.417 451.565C644.848 451.671 646.233 452.121 647.454 452.876L652.294 455.672C655.108 457.506 657.45 459.978 659.129 462.887C660.808 465.796 661.777 469.06 661.958 472.414V515.054ZM744.198 499.763C744.012 503.116 743.041 506.378 741.362 509.286C739.683 512.194 737.344 514.667 734.534 516.505L729.676 519.301C728.462 520.039 727.091 520.482 725.674 520.594C725.061 519.307 724.762 517.894 724.801 516.47V473.829C724.977 470.474 725.945 467.209 727.624 464.299C729.304 461.39 731.648 458.918 734.465 457.088L739.305 454.274C740.527 453.523 741.912 453.08 743.342 452.981C743.941 454.271 744.234 455.683 744.198 457.105V499.763ZM786.489 475.297C786.305 478.65 785.333 481.912 783.65 484.818C781.968 487.724 779.624 490.192 776.808 492.021L771.985 494.817C770.764 495.572 769.379 496.022 767.948 496.128C767.347 494.832 767.054 493.414 767.091 491.986V449.398C767.275 446.047 768.246 442.787 769.925 439.881C771.604 436.975 773.944 434.506 776.755 432.674L781.596 429.878C782.806 429.113 784.188 428.663 785.616 428.567C786.231 429.853 786.53 431.267 786.489 432.692V475.297Z" fill="#0D76E3"/>
<path opacity="0.45" d="M694.62 438.249L507.317 330.127L518.186 447.843C518.811 452.35 520.393 456.672 522.825 460.518C525.258 464.364 528.485 467.645 532.289 470.142L681.741 556.436C688.137 560.141 698.203 560.491 705.333 557.467L705.874 557.258L706.189 557.1C706.638 556.904 707.075 556.682 707.5 556.436L796.503 505.041C800.305 502.547 803.531 499.272 805.965 495.432C808.4 491.593 809.988 487.278 810.623 482.777L821.476 365.061L694.62 438.249ZM565.301 459.132C565.339 460.557 565.04 461.97 564.427 463.256C563.01 463.145 561.639 462.702 560.425 461.963L555.567 459.167C552.757 457.329 550.418 454.856 548.739 451.948C547.061 449.04 546.089 445.778 545.903 442.426V399.89C545.869 398.462 546.162 397.046 546.759 395.748C548.189 395.863 549.572 396.312 550.796 397.059L555.637 399.872C558.454 401.703 560.797 404.174 562.477 407.084C564.156 409.994 565.124 413.259 565.301 416.614V459.132ZM613.621 487.093C613.658 488.521 613.365 489.939 612.764 491.235C611.34 491.123 609.962 490.673 608.745 489.924L603.904 487.128C601.093 485.296 598.752 482.827 597.073 479.921C595.394 477.015 594.424 473.755 594.24 470.404V427.798C594.206 426.372 594.493 424.957 595.079 423.657C596.512 423.755 597.899 424.205 599.116 424.967L603.974 427.781C606.787 429.61 609.128 432.079 610.805 434.985C612.481 437.892 613.446 441.154 613.621 444.505V487.093ZM661.958 515.054C661.995 516.484 661.696 517.903 661.084 519.196C659.669 519.076 658.3 518.634 657.083 517.903L652.224 515.107C649.414 513.269 647.076 510.796 645.397 507.888C643.718 504.98 642.747 501.718 642.56 498.365V455.69C642.525 454.267 642.818 452.856 643.417 451.565C644.848 451.671 646.233 452.121 647.454 452.876L652.294 455.672C655.108 457.506 657.45 459.978 659.129 462.887C660.808 465.796 661.777 469.06 661.958 472.414V515.054ZM744.198 499.763C744.012 503.116 743.041 506.378 741.362 509.286C739.683 512.194 737.344 514.667 734.534 516.505L729.676 519.301C728.462 520.039 727.091 520.482 725.674 520.594C725.061 519.307 724.762 517.894 724.801 516.47V473.829C724.977 470.474 725.945 467.209 727.624 464.299C729.304 461.39 731.648 458.918 734.465 457.088L739.305 454.274C740.527 453.523 741.912 453.08 743.342 452.981C743.941 454.271 744.234 455.683 744.198 457.105V499.763ZM786.489 475.297C786.305 478.65 785.333 481.912 783.65 484.818C781.968 487.724 779.624 490.192 776.808 492.021L771.985 494.817C770.764 495.572 769.379 496.022 767.948 496.128C767.347 494.832 767.054 493.414 767.091 491.986V449.398C767.275 446.047 768.246 442.787 769.925 439.881C771.604 436.975 773.944 434.506 776.755 432.674L781.596 429.878C782.806 429.113 784.188 428.663 785.616 428.567C786.231 429.853 786.53 431.267 786.489 432.692V475.297Z" fill="white"/>
<path opacity="0.4" d="M694.62 438.249V548.939C694.62 556.262 699.251 559.722 705.333 557.415L705.874 557.205L706.189 557.048C706.638 556.851 707.075 556.629 707.5 556.384L796.503 504.988C800.305 502.495 803.531 499.219 805.965 495.38C808.4 491.541 809.988 487.226 810.623 482.724L821.476 365.009L694.62 438.249ZM744.216 499.641C744.03 502.993 743.058 506.255 741.379 509.163C739.701 512.071 737.362 514.544 734.552 516.382L729.694 519.178C728.479 519.917 727.109 520.36 725.692 520.471C725.079 519.185 724.779 517.772 724.818 516.347V473.829C724.995 470.474 725.962 467.209 727.642 464.299C729.321 461.389 731.665 458.918 734.482 457.087L739.323 454.274C740.544 453.523 741.929 453.079 743.36 452.981C743.959 454.271 744.252 455.683 744.216 457.105V499.641ZM786.507 475.175C786.323 478.528 785.35 481.79 783.668 484.696C781.986 487.602 779.641 490.07 776.825 491.899L772.002 494.695C770.781 495.45 769.397 495.9 767.965 496.006C767.365 494.709 767.072 493.292 767.109 491.864V449.398C767.292 446.047 768.263 442.787 769.942 439.881C771.621 436.975 773.961 434.506 776.773 432.674L781.614 429.878C782.823 429.113 784.205 428.663 785.633 428.567C786.248 429.853 786.548 431.267 786.507 432.692V475.175Z" fill="white"/>
<path d="M748.969 459.866V502.402C748.792 505.752 747.826 509.013 746.149 511.919C744.473 514.826 742.134 517.295 739.323 519.126L734.482 521.922C730.567 524.176 727.212 523.442 725.744 520.471C727.161 520.36 728.532 519.917 729.746 519.178L734.604 516.382C737.414 514.544 739.753 512.071 741.432 509.163C743.11 506.255 744.082 502.993 744.268 499.641V457.105C744.304 455.683 744.011 454.271 743.412 452.981C746.68 452.806 748.969 455.375 748.969 459.866Z" fill="#455A64"/>
<path d="M791.278 435.453V477.971C791.094 481.324 790.124 484.587 788.445 487.496C786.766 490.404 784.426 492.876 781.614 494.712L776.773 497.509C772.858 499.763 769.503 499.029 768.035 496.058C769.467 495.952 770.851 495.502 772.072 494.747L776.895 491.951C779.711 490.122 782.055 487.654 783.738 484.748C785.42 481.842 786.393 478.58 786.577 475.227V432.692C786.618 431.267 786.318 429.853 785.703 428.567C788.971 428.41 791.278 430.961 791.278 435.453Z" fill="#455A64"/>
<path d="M829.794 365.009V378.989C829.718 379.791 829.431 380.558 828.961 381.212C828.491 381.866 827.856 382.383 827.12 382.711L701.051 455.462C699.071 456.508 696.859 457.037 694.62 457V443.02C696.86 443.065 699.074 442.536 701.051 441.482L827.12 368.783C827.901 368.454 828.567 367.902 829.036 367.197C829.506 366.491 829.757 365.664 829.759 364.816C829.781 364.878 829.793 364.943 829.794 365.009V365.009Z" fill="#37474F"/>
<path d="M694.62 443.037V457.018C692.375 457.057 690.157 456.528 688.172 455.48L501.69 347.813C500.954 347.485 500.319 346.967 499.849 346.313C499.379 345.659 499.092 344.892 499.016 344.09C499.016 342.745 499.016 331.473 499.016 330.11C499.016 330.11 499.016 329.918 499.016 329.83C499.024 330.683 499.279 331.515 499.75 332.225C500.222 332.936 500.889 333.494 501.672 333.832L688.154 441.482C690.14 442.547 692.367 443.082 694.62 443.037V443.037Z" fill="#263238"/>
<path d="M829.776 365.009C829.701 365.806 829.415 366.569 828.949 367.22C828.482 367.871 827.851 368.386 827.12 368.713L701.051 441.499C699.057 442.516 696.85 443.047 694.611 443.047C692.373 443.047 690.166 442.516 688.172 441.499L501.69 333.832C500.954 333.504 500.319 332.987 499.849 332.333C499.379 331.679 499.092 330.911 499.016 330.11H507.317L634.19 403.333L694.62 438.284L821.476 365.043L829.776 365.009Z" fill="#455A64"/>
<path d="M637.824 458.451V500.986C638.007 504.338 638.976 507.599 640.652 510.507C642.327 513.415 644.663 515.889 647.471 517.728L652.329 520.524C656.226 522.761 659.582 522.027 661.067 519.073C659.641 518.967 658.262 518.517 657.048 517.763L652.189 514.967C649.378 513.134 647.038 510.665 645.359 507.76C643.679 504.854 642.709 501.593 642.525 498.243V455.707C642.488 454.279 642.781 452.861 643.382 451.565C640.131 451.408 637.824 453.959 637.824 458.451Z" fill="#37474F"/>
<path d="M589.487 430.542V473.078C589.666 476.43 590.632 479.693 592.308 482.602C593.985 485.511 596.323 487.983 599.134 489.819L603.992 492.615C607.906 494.852 611.244 494.136 612.73 491.165C611.304 491.055 609.926 490.606 608.71 489.854L603.869 487.058C601.054 485.229 598.709 482.761 597.027 479.855C595.345 476.949 594.372 473.687 594.188 470.334V427.798C594.147 426.368 594.447 424.949 595.062 423.657C591.794 423.499 589.487 426.051 589.487 430.542Z" fill="#37474F"/>
<path d="M541.237 402.651V445.187C541.418 448.538 542.387 451.8 544.066 454.706C545.746 457.612 548.087 460.081 550.901 461.911L555.742 464.707C559.656 466.961 563.011 466.227 564.479 463.274C563.058 463.145 561.684 462.697 560.46 461.963L555.619 459.167C552.805 457.333 550.464 454.861 548.784 451.952C547.105 449.043 546.136 445.779 545.955 442.426V399.89C545.92 398.468 546.213 397.056 546.812 395.766C543.456 395.591 541.237 398.16 541.237 402.651Z" fill="#37474F"/>
<path d="M561.089 368.137V369.343C561.089 374.026 562.05 376.333 566.122 378.675C568.254 379.898 569.408 378.36 569.408 375.878V372.925L561.089 368.137Z" fill="#0D76E3"/>
<path opacity="0.25" d="M561.089 368.137V369.343C561.089 374.026 562.05 376.333 566.122 378.675C568.254 379.898 569.408 378.36 569.408 375.878V372.925L561.089 368.137Z" fill="black"/>
<path d="M586.237 278.085C587.266 274.6 589.502 271.595 592.545 269.609L595.202 279.011L569.39 372.925L561.089 368.119L586.237 278.085Z" fill="#0D76E3"/>
<path opacity="0.25" d="M586.237 278.085C587.266 274.6 589.502 271.595 592.545 269.609L595.202 279.011L569.39 372.925L561.089 368.119L586.237 278.085Z" fill="black"/>
<path d="M595.411 275.097L600.06 282.803L617.535 400.764L607.924 395.224L591.025 283.764C590.898 282.057 591.239 280.348 592.012 278.82C592.785 277.293 593.96 276.005 595.411 275.097V275.097Z" fill="#0D76E3"/>
<path d="M607.994 395.224V396.43C607.994 401.113 608.71 404.399 612.764 406.723C613.255 407.004 613.812 407.152 614.378 407.151C614.943 407.15 615.499 407.001 615.989 406.717C616.479 406.434 616.886 406.028 617.17 405.538C617.454 405.048 617.604 404.493 617.605 403.927V400.764L607.994 395.224Z" fill="#0D76E3"/>
<path d="M437.135 274.415C450.049 273.541 458.28 275.254 464.676 290.143C472.802 308.982 483.218 344.318 485.996 355.974C487.29 361.444 487.272 366.04 481.872 372.226C470.321 385.42 455.117 400.816 455.117 400.816L446.869 371.929L456.917 357.145L444.806 324.36L437.135 274.415Z" fill="#FFA8A7"/>
<path d="M456.935 357.145C458.937 360.618 461.278 363.884 463.925 366.896C460.275 365.551 457.233 362.932 455.362 359.521L456.935 357.145Z" fill="#F28F8F"/>
<path d="M323.264 670.482C322.597 672.68 322.542 675.019 323.106 677.245C323.753 678.608 327.807 683.082 336.091 684.707C344.374 686.333 355.733 684.707 360.557 684.41C365.38 684.113 380.846 685.983 385.721 686.647C393.411 687.696 399.317 686.001 402.183 683.152C402.646 682.593 402.987 681.944 403.186 681.246C403.384 680.548 403.436 679.816 403.337 679.098C403.316 677.245 403.04 675.405 402.515 673.628L323.264 670.482Z" fill="#37474F"/>
<path d="M401.31 665.659C401.467 666.305 401.607 666.935 401.729 667.581C402.481 670.851 402.723 674.217 402.446 677.56C401.829 678.675 400.984 679.649 399.966 680.416C398.949 681.184 397.781 681.729 396.539 682.016C390.754 683.851 386.351 683.554 379.937 682.348C373.492 681.409 366.981 681.006 360.469 681.142C355.419 681.492 348.481 682.453 343.43 681.999C339.147 681.805 334.919 680.944 330.9 679.447C327.528 677.997 324.102 676.144 323.281 672.684C322.285 665.397 325.343 662.199 328.821 660.137C332.299 658.074 337.174 658.249 342.434 657.9C347.188 657.585 350.648 657.585 354.877 657.253C358.509 656.901 362.1 656.217 365.607 655.208C368.788 654.195 372.213 650.682 373.576 650.525C373.576 650.525 394.739 650.368 396.766 650.525C399.09 650.717 399.807 657.97 400.104 659.542C400.331 660.766 400.366 662.094 400.698 663.282C400.908 664.121 401.117 664.855 401.31 665.659Z" fill="#0D76E3"/>
<g opacity="0.4">
<path opacity="0.4" d="M401.31 665.659C401.467 666.305 401.607 666.935 401.729 667.581C402.481 670.851 402.723 674.217 402.446 677.56C401.829 678.675 400.984 679.649 399.966 680.416C398.949 681.184 397.781 681.729 396.539 682.016C390.754 683.851 386.351 683.554 379.937 682.348C373.492 681.409 366.981 681.006 360.469 681.142C355.419 681.492 348.481 682.453 343.43 681.999C339.147 681.805 334.919 680.944 330.9 679.447C327.528 677.997 324.102 676.144 323.281 672.684C322.285 665.397 325.343 662.199 328.821 660.137C332.299 658.074 337.174 658.249 342.434 657.9C347.188 657.585 350.648 657.585 354.877 657.253C358.509 656.901 362.1 656.217 365.607 655.208C368.788 654.195 372.213 650.682 373.576 650.525C373.576 650.525 394.739 650.368 396.766 650.525C399.09 650.717 399.807 657.97 400.104 659.542C400.331 660.766 400.366 662.094 400.698 663.282C400.908 664.121 401.117 664.855 401.31 665.659Z" fill="black"/>
</g>
<path d="M336.091 681.02C335.427 675.777 334.553 664.366 344.217 657.795H345.458C341.085 656.528 336.443 656.528 332.071 657.795C324.33 659.857 320.887 666.113 322.827 672.736C322.792 672.667 324.539 679.063 336.091 681.02Z" fill="#FAFAFA"/>
<path d="M409.016 554.13C408.335 566.223 397.081 648.725 396.102 653.146C395.508 655.785 392.17 658.599 383.484 658.302C377.385 658.109 372.58 658.616 372.824 653.828L366.69 549.062L409.016 554.13Z" fill="#FFA8A7"/>
<path d="M411.026 602.956C410.711 606.661 410.222 609.947 411.743 614.106C413.91 619.978 418.523 622.669 421.232 624.976C424.086 627.8 426.721 630.838 429.113 634.063C431.752 637.278 432.329 639.306 436.453 642.801C439.022 644.915 446.204 646.663 450.626 644.793C454.121 643.325 455.274 642.154 455.065 636.859C454.855 631.564 437.956 629.746 437.956 629.746L411.026 602.956Z" fill="#37474F"/>
<path d="M452.88 621.061C454.313 621.568 454.628 624.189 454.89 629.379C455.065 633.294 456.795 639.043 451.115 641.525C446.519 643.517 439.197 642.189 436.086 638.484C432.332 633.516 428.331 628.739 424.098 624.172C419.309 619.279 414.311 617.636 412.197 607.867C410.816 601.576 411.9 598.972 416.339 597.172C422.455 594.69 432.067 602.799 436.855 604.057C440.979 605.158 451.43 620.537 452.88 621.061Z" fill="#0D76E3"/>
<path opacity="0.4" d="M452.88 621.061C454.313 621.568 454.628 624.189 454.89 629.379C455.065 633.294 456.795 639.043 451.115 641.525C446.519 643.517 439.197 642.189 436.086 638.484C432.332 633.516 428.331 628.739 424.098 624.172C419.309 619.279 414.311 617.636 412.197 607.867C410.816 601.576 411.9 598.972 416.339 597.172C422.455 594.69 432.067 602.799 436.855 604.057C440.979 605.158 451.43 620.537 452.88 621.061Z" fill="black"/>
<path d="M460.29 528.126C461.094 561.225 455.886 594.533 453.474 623.088C453.055 625.902 438.952 631.669 434.251 623.455C433.972 622.844 421.092 529.664 421.092 529.664L460.29 528.126Z" fill="#FFA8A7"/>
<path d="M414.993 615.084C414.993 615.084 415.465 603.813 431.263 601.925L430.983 599.933C429.273 598.242 427.144 597.036 424.814 596.438C419.327 595.022 414.993 596.438 412.11 599.933C409.226 603.428 412.144 612.83 414.993 615.084Z" fill="#FAFAFA"/>
<path d="M459.556 506.841C459.556 506.841 458.647 483.668 459.206 458.748C459.556 443.107 459.87 434.142 459.206 423.202C458.636 410.978 457.17 398.811 454.82 386.801C454.82 386.801 368.124 370.269 367.075 401.393C365.799 438.686 364.593 512.642 364.506 522.394C364.419 532.145 365.03 538.664 366.026 559.407C379.832 562.78 399.352 560.665 410.24 556.594C410.624 546.108 410.869 540.184 410.869 540.184L415.133 473.392C415.133 473.392 416.234 486.464 416.985 500.147C417.737 513.831 417.51 517.134 419.624 542.368C428.362 546.405 454.121 546.143 461.041 538.541C461.159 527.955 460.663 517.37 459.556 506.841V506.841Z" fill="#37474F"/>
<path d="M364.891 470.876C377.123 473.777 397.43 473.025 397.43 473.025C397.43 473.025 397.15 516.872 394.896 522.621C392.642 528.371 366.603 527.427 363.44 522.621C363.475 499.186 364.891 470.876 364.891 470.876Z" fill="#263238"/>
<path d="M446.869 429.948C446.869 429.948 435.562 445.484 421.931 451.303L416.828 496.74L415.168 474.021L418.313 446.55C418.313 446.55 435.579 439.018 446.869 429.948Z" fill="#263238"/>
<path d="M401.921 261.885L402.113 290.3L430.826 290.003L431.298 257.009L401.921 261.885Z" fill="#FFA8A7"/>
<path d="M460.22 288.763C457.861 281.021 449.735 274.66 439.354 274.345C437.047 274.345 431.053 274.345 431.053 274.345C429.882 279.134 414.521 281.335 402.009 278.417C398.234 279.413 383.502 282.157 380.356 283.205C371.356 286.194 369.539 295.333 368.123 324.692C368.123 324.692 365.747 373.414 366.673 409.991C382.401 418.344 408.335 418.222 425.741 416.457C453.072 413.696 458.367 403.717 458.367 403.717C457.166 391.085 456.763 378.39 457.162 365.708C457.494 353.772 460.936 341.119 462.002 327.576C463.575 307.374 461.828 294.075 460.22 288.763Z" fill="#0D76E3"/>
<path opacity="0.3" d="M460.22 288.763C457.861 281.021 449.735 274.66 439.354 274.345C437.047 274.345 431.053 274.345 431.053 274.345C429.882 279.134 414.521 281.335 402.009 278.417C398.234 279.413 383.502 282.157 380.356 283.205C371.356 286.194 369.539 295.333 368.123 324.692C368.123 324.692 365.747 373.414 366.673 409.991C382.401 418.344 408.335 418.222 425.741 416.457C453.072 413.696 458.367 403.717 458.367 403.717C457.166 391.085 456.763 378.39 457.162 365.708C457.494 353.772 460.936 341.119 462.002 327.576C463.575 307.374 461.828 294.075 460.22 288.763Z" fill="black"/>
<path d="M380.461 225.483C380.461 225.483 372.842 236.982 373.558 238.013C374.275 239.044 380.234 239.761 380.234 239.761L380.461 225.483Z" fill="#F28F8F"/>
<path d="M401.082 188.785C387.417 191.074 382.366 199.27 380.356 223.037C379.905 230.689 379.87 238.361 380.252 246.017C381.125 256.38 383.065 258.984 385.145 261.308C387.224 263.633 399.772 264.332 405.434 263.056C412.529 261.413 428.572 256.468 436.453 245.458C445.733 232.491 446.938 216.309 439.739 206.75C423.067 184.311 406.675 187.789 401.082 188.785Z" fill="#FFA8A7"/>
<path d="M385.145 261.256C386.718 263.003 396.085 263.93 401.939 263.475V260.103C396.469 261.572 390.765 261.964 385.145 261.256V261.256Z" fill="#F28F8F"/>
<path d="M391.436 209.755C391.061 212.502 391.621 215.294 393.025 217.684C394.429 220.074 396.596 221.922 399.178 222.932C398.394 224.853 397.973 226.904 397.937 228.979C397.806 229.999 397.989 231.035 398.461 231.949C398.6 232.294 398.837 232.59 399.142 232.802C399.448 233.014 399.809 233.132 400.18 233.141C400.552 233.15 400.918 233.051 401.233 232.854C401.549 232.658 401.8 232.374 401.956 232.037C402.793 230.325 403.819 228.713 405.015 227.231C406.559 225.536 408.675 224.472 410.956 224.243C419.502 223.666 420.113 234.85 416.513 239.324C410.624 246.646 406.028 241.334 406.028 241.334C406.028 241.334 404.56 250.561 414.277 259.718C416.513 261.345 419.17 262.298 421.931 262.462C424.395 262.776 428.816 263.108 431.158 261.798C435.929 254.056 446.065 241.107 449.682 234.274C453.177 227.703 457.249 220.066 455.484 212.412C455.132 210.743 454.443 209.164 453.461 207.769C452.478 206.375 451.223 205.196 449.77 204.303C450.838 202.165 451.434 199.823 451.517 197.435C451.377 193.223 447.113 189.641 442.954 191.511C443.439 189.964 443.409 188.302 442.869 186.773C442.33 185.245 441.309 183.933 439.961 183.033C438.612 182.133 437.009 181.695 435.39 181.784C433.772 181.872 432.225 182.483 430.983 183.524C431.254 181.72 430.835 179.88 429.809 178.372C428.784 176.863 427.227 175.796 425.45 175.384C423.673 174.971 421.806 175.244 420.221 176.147C418.636 177.05 417.449 178.518 416.898 180.257C415.918 178.746 414.546 177.53 412.928 176.739C411.311 175.947 409.509 175.61 407.715 175.762C405.921 175.915 404.202 176.552 402.741 177.605C401.281 178.658 400.134 180.088 399.422 181.742C396.528 179.88 393.058 179.129 389.653 179.627C387.966 179.891 386.373 180.577 385.023 181.622C383.672 182.667 382.608 184.037 381.929 185.604C381.296 187.187 381.192 188.933 381.633 190.581C382.074 192.228 383.036 193.689 384.376 194.744C381.248 194.919 378.819 199.078 378.801 202.223C378.854 204.635 380.461 212.709 391.436 209.755Z" fill="#263238"/>
<path d="M282.336 306.623C284.538 310.764 308.899 355.345 315.976 362.09C321.027 366.896 328.821 370.164 336.947 363.226C352.011 350.294 375.393 329.9 375.393 329.9C393.358 315.675 395.84 289.794 387.626 281.493C383.397 281.72 370.465 282.681 362.094 292.467C344.933 312.494 326.636 333.063 326.636 333.063C322.145 327.121 318.143 322.438 313.303 315.692C309.44 310.292 303.411 304.648 303.167 297.623C303.044 293.953 304.373 290.3 304.914 286.7C305.648 282.017 306.295 277.386 307.064 272.72C307.339 271.802 307.251 270.814 306.819 269.959C306.317 269.46 305.645 269.171 304.938 269.148C304.231 269.125 303.542 269.371 303.009 269.836C301.812 270.917 300.895 272.273 300.336 273.786C299.619 275.394 298.885 276.984 298.151 278.574C297.819 279.326 297.312 280.182 296.491 280.199C293.905 280.199 293.485 274.747 292.821 273.052C292.113 270.818 291.685 268.506 291.545 266.167C291.161 263.37 290.794 260.574 290.427 257.796C290.322 256.992 290.13 256.048 289.396 255.681C288.662 255.314 287.439 255.996 286.81 256.782C285.796 258.059 285.079 259.545 284.712 261.134C283.856 264.838 284.922 269.033 282.965 272.335C282.139 273.559 281.19 274.695 280.134 275.726C278.911 277.162 277.796 278.687 276.796 280.287C275.048 282.978 273.93 285.18 274.769 288.378C276.571 294.734 279.11 300.857 282.336 306.623V306.623Z" fill="#FFA8A7"/>
<path d="M326.532 333.063C321.935 338.096 319.227 348.075 319.227 348.075C319.227 348.075 318.737 337.502 324.102 329.9L326.532 333.063Z" fill="#F28F8F"/>
</svg>
